<svg width="48" height="48" viewBox="0 0 48 48" fill="none" xmlns="http://www.w3.org/2000/svg">
<path d="M4 38V34H24V38H4ZM4 28V24H14V28H4ZM4 18V14H14V18H4ZM41.2 38L33.5 30.3C32.7 30.8667 31.825 31.2917 30.875 31.575C29.925 31.8583 28.9667 32 28 32C25.2333 32 22.875 31.025 20.925 29.075C18.975 27.125 18 24.7667 18 22C18 19.2333 18.975 16.875 20.925 14.925C22.875 12.975 25.2333 12 28 12C30.7667 12 33.125 12.975 35.075 14.925C37.025 16.875 38 19.2333 38 22C38 22.9667 37.8583 23.925 37.575 24.875C37.2917 25.825 36.8667 26.7 36.3 27.5L44 35.2L41.2 38ZM28 28C29.6667 28 31.0833 27.4167 32.25 26.25C33.4167 25.0833 34 23.6667 34 22C34 20.3333 33.4167 18.9167 32.25 17.75C31.0833 16.5833 29.6667 16 28 16C26.3333 16 24.9167 16.5833 23.75 17.75C22.5833 18.9167 22 20.3333 22 22C22 23.6667 22.5833 25.0833 23.75 26.25C24.9167 27.4167 26.3333 28 28 28Z" fill="#303F8D"/>
</svg>
