<svg width="49" height="39" viewBox="0 0 49 39" fill="none" xmlns="http://www.w3.org/2000/svg">
<path d="M38.5026 21.75V16.9167H48.1693V21.75H38.5026ZM41.4026 38.6667L33.6693 32.8667L36.5693 29L44.3026 34.8L41.4026 38.6667ZM36.5693 9.66667L33.6693 5.8L41.4026 0L44.3026 3.86667L36.5693 9.66667ZM7.08594 36.25V26.5833H4.66927C3.3401 26.5833 2.20226 26.1101 1.25573 25.1635C0.309201 24.217 -0.164062 23.0792 -0.164062 21.75V16.9167C-0.164062 15.5875 0.309201 14.4497 1.25573 13.5031C2.20226 12.5566 3.3401 12.0833 4.66927 12.0833H14.3359L26.4193 4.83333V33.8333L14.3359 26.5833H11.9193V36.25H7.08594ZM21.5859 25.2542V13.4125L15.6651 16.9167H4.66927V21.75H15.6651L21.5859 25.2542ZM28.8359 27.4292V11.2375C29.9234 12.2042 30.7995 13.3823 31.4641 14.7719C32.1286 16.1615 32.4609 17.6819 32.4609 19.3333C32.4609 20.9847 32.1286 22.5052 31.4641 23.8948C30.7995 25.2844 29.9234 26.4625 28.8359 27.4292Z" fill="#303F8D"/>
</svg>
