<svg width="24" height="24" viewBox="0 0 24 24" fill="none" xmlns="http://www.w3.org/2000/svg">
<path d="M19.7778 2H4.22222C2.99444 2 2 2.99444 2 4.22222V19.7778C2 21.0056 2.99444 22 4.22222 22H19.7778C21.0056 22 22 21.0056 22 19.7778V4.22222C22 2.99444 21.0056 2 19.7778 2ZM8.66667 17.5556H5.86333V9.77778H8.66667V17.5556ZM7.21556 8.35222C6.35889 8.35222 5.78667 7.78111 5.78667 7.01889C5.78667 6.25667 6.35778 5.68556 7.31 5.68556C8.16667 5.68556 8.73889 6.25667 8.73889 7.01889C8.73889 7.78111 8.16778 8.35222 7.21556 8.35222ZM18.6667 17.5556H15.9533V13.3044C15.9533 12.1289 15.23 11.8578 14.9589 11.8578C14.6878 11.8578 13.7833 12.0389 13.7833 13.3044C13.7833 13.4856 13.7833 17.5556 13.7833 17.5556H10.98V9.77778H13.7833V10.8633C14.1444 10.23 14.8678 9.77778 16.2244 9.77778C17.5811 9.77778 18.6667 10.8633 18.6667 13.3044V17.5556Z" fill="#303F8D"/>
</svg>
