<svg width="28" height="28" viewBox="0 0 28 28" fill="none" xmlns="http://www.w3.org/2000/svg">
<mask id="mask0_900_8915" style="mask-type:alpha" maskUnits="userSpaceOnUse" x="0" y="0" width="28" height="28">
<rect width="28" height="28" fill="#020513"/>
</mask>
<g mask="url(#mask0_900_8915)">
<path d="M13.9997 19.832C14.3302 19.832 14.6073 19.7202 14.8309 19.4966C15.0545 19.273 15.1663 18.9959 15.1663 18.6654C15.1663 18.3348 15.0545 18.0577 14.8309 17.8341C14.6073 17.6105 14.3302 17.4987 13.9997 17.4987C13.6691 17.4987 13.392 17.6105 13.1684 17.8341C12.9448 18.0577 12.833 18.3348 12.833 18.6654C12.833 18.9959 12.9448 19.273 13.1684 19.4966C13.392 19.7202 13.6691 19.832 13.9997 19.832ZM12.833 15.1654H15.1663V8.16537H12.833V15.1654ZM13.9997 25.6654C12.3858 25.6654 10.8691 25.3591 9.44968 24.7466C8.03023 24.1341 6.79551 23.3029 5.74551 22.2529C4.69551 21.2029 3.86426 19.9681 3.25176 18.5487C2.63926 17.1293 2.33301 15.6126 2.33301 13.9987C2.33301 12.3848 2.63926 10.8681 3.25176 9.4487C3.86426 8.02925 4.69551 6.79453 5.74551 5.74453C6.79551 4.69453 8.03023 3.86328 9.44968 3.25078C10.8691 2.63828 12.3858 2.33203 13.9997 2.33203C15.6136 2.33203 17.1302 2.63828 18.5497 3.25078C19.9691 3.86328 21.2038 4.69453 22.2538 5.74453C23.3038 6.79453 24.1351 8.02925 24.7476 9.4487C25.3601 10.8681 25.6663 12.3848 25.6663 13.9987C25.6663 15.6126 25.3601 17.1293 24.7476 18.5487C24.1351 19.9681 23.3038 21.2029 22.2538 22.2529C21.2038 23.3029 19.9691 24.1341 18.5497 24.7466C17.1302 25.3591 15.6136 25.6654 13.9997 25.6654ZM13.9997 23.332C16.6052 23.332 18.8122 22.4279 20.6205 20.6195C22.4288 18.8112 23.333 16.6043 23.333 13.9987C23.333 11.3931 22.4288 9.1862 20.6205 7.37787C18.8122 5.56953 16.6052 4.66536 13.9997 4.66536C11.3941 4.66536 9.18718 5.56953 7.37884 7.37787C5.57051 9.1862 4.66634 11.3931 4.66634 13.9987C4.66634 16.6043 5.57051 18.8112 7.37884 20.6195C9.18718 22.4279 11.3941 23.332 13.9997 23.332Z" fill="#303F8D"/>
</g>
</svg>
