<svg width="377" height="250" viewBox="0 100 377 120" fill="none" xmlns="http://www.w3.org/2000/svg">
<path d="M272.717 210.3H214.117V185.7L277.717 105.7H310.317V179.9H321.917V210.3H310.317V234.5H272.717V210.3ZM279.317 181.5V146.5L250.317 181.5H279.317Z" fill="#CAD2FC"/>
<path d="M86.7172 210.3H28.1172V185.7L91.7172 105.7H124.317V179.9H135.917V210.3H124.317V234.5H86.7172V210.3ZM93.3172 181.5V146.5L64.3172 181.5H93.3172Z" fill="#CAD2FC"/>
<g filter="url(#filter0_d_1581_6069)">
<path d="M250.5 181.443L250.454 154.321L213.218 154.381L239.502 128.014L220.292 108.864L194.008 135.236L193.943 98L166.821 98.0463L166.886 135.282L140.509 108.998L121.364 128.203L147.74 154.492L110.5 154.557L110.546 181.679L147.782 181.619L121.493 207.991L140.708 227.141L166.997 200.76L167.057 238L194.179 237.958L194.119 200.713L220.491 227.002L239.636 207.792L213.26 181.503L250.5 181.443Z" fill="#FAF79E"/>
</g>
<g clip-path="url(#clip0_1581_6069)">
<path d="M251 181.943L250.954 154.821L213.722 154.881L240.002 128.514L220.792 109.364L194.508 135.736L194.443 98.5L167.321 98.5463L167.386 135.782L141.014 109.498L121.868 128.703L148.245 154.992L111 155.057L111.051 182.179L148.282 182.114L121.998 208.491L141.208 227.641L167.497 201.26L167.562 238.5L194.684 238.454L194.619 201.213L220.996 227.498L240.141 208.292L213.76 182.003L251 181.943Z" fill="#FAF79E"/>
<path d="M220.912 210.287C223.511 210.287 225.618 207.23 225.618 203.458C225.618 199.686 223.511 196.629 220.912 196.629C218.314 196.629 216.207 199.686 216.207 203.458C216.207 207.23 218.314 210.287 220.912 210.287Z" fill="#FAF79E"/>
<path d="M221.203 193.467C220.556 193.453 219.639 193.49 218.585 193.75C214.425 194.767 212.163 198.224 211.321 199.51C210.062 201.43 207.434 205.446 208.818 209.638C209.877 212.844 212.676 214.325 216.234 216.203C219.228 217.785 223.896 220.251 227.625 218.322C228.814 217.707 229.772 216.624 231.16 214.144C233.214 210.471 234.181 207.556 235.056 203.956C235.69 201.361 235.477 199.945 234.653 198.742C233.83 197.539 231.53 196.017 230.267 195.429C227.801 194.286 224.109 193.44 223.433 194.573C223.091 195.147 223.864 195.665 224.336 197.668C224.868 199.926 224.127 201.694 223.942 202.554C223.688 203.753 222.573 205.719 221.768 206.843C221.416 207.334 220.736 207.981 219.69 207.991C219.561 207.991 219.144 208.023 218.487 207.44C217.992 207.001 217.34 205.946 217.238 204.127C217.118 201.893 217.997 200.25 218.77 198.233" fill="#FAF79E"/>
<path d="M192.936 171.005C192.936 171.033 192.945 171.061 192.945 171.089C192.963 170.867 192.986 170.654 192.996 170.432C192.986 170.626 192.936 170.811 192.936 171.01V171.005Z" fill="white"/>
<path d="M201.943 154.679L201.938 154.679C195.958 155.452 191.736 160.926 192.508 166.907L192.808 169.229C193.581 175.21 199.055 179.432 205.036 178.659L205.041 178.659C211.021 177.886 215.243 172.412 214.471 166.431L214.171 164.109C213.398 158.128 207.924 153.906 201.943 154.679Z" fill="white"/>
<path d="M205.158 179.573C198.681 180.411 192.726 175.821 191.893 169.344L191.593 167.026C190.755 160.548 195.345 154.594 201.822 153.761C208.3 152.923 214.254 157.513 215.092 163.99L215.393 166.308C216.23 172.786 211.64 178.74 205.163 179.573H205.158ZM202.058 155.593C196.594 156.301 192.722 161.321 193.425 166.79L193.726 169.108C194.434 174.572 199.454 178.444 204.922 177.741C210.386 177.033 214.259 172.013 213.556 166.544L213.255 164.226C212.547 158.762 207.527 154.89 202.058 155.593Z" fill="#303F8D"/>
<path d="M204.169 163.473H214.223V168.502C214.223 171.278 211.969 173.531 209.193 173.531C206.417 173.531 204.164 171.278 204.164 168.502V163.473H204.169Z" fill="#303F8D"/>
<path d="M185.726 154.576H185.722C179.691 154.576 174.803 159.465 174.803 165.495V167.836C174.803 173.867 179.691 178.755 185.722 178.755H185.726C191.757 178.755 196.645 173.867 196.645 167.836V165.495C196.645 159.465 191.757 154.576 185.726 154.576Z" fill="white"/>
<path d="M185.725 179.68C179.192 179.68 173.881 174.364 173.881 167.835V165.499C173.881 158.966 179.197 153.654 185.725 153.654C192.254 153.654 197.57 158.97 197.57 165.499V167.835C197.57 174.368 192.254 179.68 185.725 179.68ZM185.725 155.5C180.215 155.5 175.732 159.984 175.732 165.494V167.831C175.732 173.341 180.215 177.824 185.725 177.824C191.236 177.824 195.719 173.341 195.719 167.831V165.494C195.719 159.984 191.236 155.5 185.725 155.5Z" fill="#303F8D"/>
<path d="M214.222 162.547H174.992V164.398H214.222V162.547Z" fill="#303F8D"/>
<path d="M186.591 163.473H196.644V168.502C196.644 171.278 194.391 173.531 191.615 173.531C188.839 173.531 186.586 171.278 186.586 168.502V163.473H186.591Z" fill="#303F8D"/>
<path d="M214.01 163.473C213.062 158.412 208.62 154.576 203.281 154.576C197.942 154.576 193.495 158.407 192.547 163.473H214.01Z" fill="#FAF79E"/>
<path d="M191.426 164.398L191.629 163.302C192.675 157.708 197.575 153.65 203.275 153.65C208.975 153.65 213.865 157.708 214.916 163.302L215.119 164.398H191.426ZM193.721 162.548H212.824C211.552 158.402 207.698 155.501 203.275 155.501C198.852 155.501 194.993 158.402 193.721 162.548Z" fill="#303F8D"/>
<path d="M196.456 163.473C195.507 158.412 191.065 154.576 185.726 154.576C180.387 154.576 175.941 158.407 174.992 163.473H196.456Z" fill="#FAF79E"/>
<path d="M173.877 164.398L174.081 163.302C175.126 157.708 180.026 153.65 185.726 153.65C191.426 153.65 196.317 157.708 197.367 163.302L197.57 164.398H173.877ZM176.172 162.548H195.276C194.003 158.402 190.149 155.501 185.726 155.501C181.303 155.501 177.444 158.402 176.172 162.548Z" fill="#303F8D"/>
<path d="M228.639 200.436L225.525 200.806L224.021 199.062L227.649 186.889L232.262 188.258L228.639 200.436Z" fill="#EE8100"/>
<path d="M224.59 219.951C221.337 219.951 218.02 218.197 215.804 217.022C212.213 215.125 209.113 213.487 207.938 209.925C206.416 205.312 209.206 201.046 210.543 199.001C211.445 197.618 213.847 193.953 218.362 192.848C219.292 192.621 220.255 192.519 221.222 192.542C221.731 192.556 222.138 192.977 222.124 193.491C222.11 193.995 221.698 194.393 221.198 194.393C221.189 194.393 221.185 194.393 221.175 194.393C220.366 194.374 219.57 194.458 218.797 194.647C214.994 195.577 212.884 198.802 212.088 200.014C210.909 201.819 208.447 205.58 209.692 209.347C210.631 212.201 213.162 213.534 216.66 215.384C219.542 216.907 223.896 219.206 227.19 217.499C228.078 217.036 228.916 216.24 230.345 213.691C232.381 210.05 233.311 207.186 234.149 203.734C234.759 201.236 234.482 200.139 233.88 199.26C233.196 198.261 231.012 196.794 229.869 196.267C227.486 195.161 225.043 194.786 224.326 195.018C224.363 195.105 224.409 195.203 224.451 195.295C224.664 195.749 224.983 196.433 225.224 197.46C225.719 199.547 225.247 201.245 224.965 202.263C224.914 202.453 224.867 202.615 224.835 202.753C224.53 204.192 223.276 206.311 222.508 207.385C221.818 208.352 220.791 208.912 219.686 208.921C219.45 208.921 218.765 208.935 217.863 208.139C217.437 207.764 216.438 206.631 216.303 204.183C216.192 202.133 216.822 200.574 217.492 198.923C217.627 198.594 217.761 198.256 217.895 197.909C218.075 197.433 218.612 197.192 219.089 197.373C219.565 197.553 219.806 198.09 219.625 198.566C219.487 198.927 219.348 199.274 219.209 199.617C218.594 201.134 218.066 202.448 218.154 204.081C218.233 205.511 218.709 206.413 219.089 206.751C219.2 206.848 219.468 207.07 219.644 207.07C220.356 207.066 220.796 206.589 220.995 206.311C221.805 205.173 222.809 203.346 223.017 202.365C223.054 202.194 223.109 201.995 223.174 201.763C223.424 200.866 223.799 199.505 223.415 197.886C223.216 197.044 222.966 196.507 222.762 196.077C222.489 195.494 222.179 194.828 222.614 194.101C223.85 192.029 228.823 193.75 230.632 194.592C232.03 195.24 234.463 196.864 235.393 198.224C236.434 199.746 236.587 201.472 235.93 204.178C235.051 207.778 234.079 210.776 231.942 214.598C230.498 217.184 229.434 218.415 228.027 219.146C226.922 219.72 225.751 219.951 224.571 219.951H224.59Z" fill="#303F8D"/>
<path d="M229.013 214.362C227.704 214.362 226.399 214.233 225.117 213.974C223.512 213.65 221.962 213.127 220.519 212.424C220.06 212.202 219.871 211.647 220.093 211.189C220.315 210.73 220.87 210.536 221.328 210.763C222.628 211.397 224.026 211.869 225.478 212.16C227.19 212.503 228.948 212.595 230.693 212.433C231.202 212.387 231.655 212.757 231.701 213.266C231.748 213.775 231.373 214.224 230.868 214.275C230.249 214.33 229.633 214.362 229.013 214.362Z" fill="#303F8D"/>
<path d="M231.234 209.389C229.874 209.389 228.519 209.25 227.186 208.973C225.581 208.635 224.04 208.103 222.601 207.386C222.143 207.159 221.958 206.604 222.185 206.146C222.411 205.688 222.967 205.503 223.425 205.73C224.72 206.373 226.113 206.854 227.566 207.159C229.277 207.52 231.026 207.622 232.78 207.474C233.293 207.418 233.738 207.807 233.779 208.316C233.821 208.825 233.446 209.274 232.937 209.315C232.368 209.366 231.799 209.389 231.234 209.389Z" fill="#303F8D"/>
<path d="M224.521 201.828C224.123 201.828 223.758 201.569 223.638 201.171C223.489 200.68 223.767 200.167 224.253 200.019C225.359 199.686 226.506 199.51 227.663 199.51H227.686C228.662 199.51 229.624 199.63 230.545 199.871C231.04 200 231.336 200.505 231.207 201C231.077 201.495 230.573 201.791 230.078 201.661C229.305 201.462 228.5 201.36 227.681 201.36H227.663C226.691 201.36 225.724 201.509 224.79 201.791C224.702 201.818 224.609 201.832 224.521 201.832V201.828Z" fill="#303F8D"/>
<path d="M221.986 219.416C221.782 219.416 221.578 219.351 221.412 219.217C220.214 218.264 219.459 216.959 219.237 215.45C219.052 214.206 219.219 212.818 219.728 211.328C219.894 210.842 220.417 210.583 220.903 210.75C221.389 210.916 221.643 211.439 221.481 211.925C221.069 213.132 220.931 214.229 221.069 215.182C221.222 216.237 221.726 217.107 222.564 217.773C222.966 218.092 223.031 218.675 222.712 219.073C222.532 219.305 222.259 219.425 221.986 219.425V219.416Z" fill="#303F8D"/>
<path d="M220.894 212.659C220.639 212.659 220.39 212.557 220.204 212.353C219.547 211.622 219.214 210.72 219.237 209.744C219.256 208.957 219.501 208.129 219.968 207.283C220.214 206.834 220.774 206.672 221.227 206.917C221.676 207.162 221.838 207.727 221.592 208.175C221.269 208.763 221.102 209.309 221.088 209.795C221.074 210.308 221.236 210.739 221.579 211.123C221.921 211.502 221.889 212.09 221.509 212.427C221.333 212.585 221.111 212.663 220.889 212.663L220.894 212.659Z" fill="#303F8D"/>
<path d="M229.773 196.628L226.599 195.629L224.91 196.077L227.649 186.889L232.262 188.258L229.773 196.628Z" fill="#EE8100"/>
<path d="M232.261 188.657C239.372 188.657 245.137 182.892 245.137 175.78C245.137 168.669 239.372 162.904 232.261 162.904C225.15 162.904 219.385 168.669 219.385 175.78C219.385 182.892 225.15 188.657 232.261 188.657Z" fill="#F4D93E"/>
<path d="M232.262 189.814C231.152 189.814 230.023 189.679 228.899 189.402C225.262 188.504 222.19 186.242 220.251 183.031C218.313 179.825 217.744 176.054 218.641 172.412C220.497 164.903 228.117 160.3 235.626 162.155C243.135 164.01 247.739 171.631 245.884 179.14C244.306 185.525 238.559 189.809 232.262 189.809V189.814ZM232.262 164.061C227.002 164.061 222.204 167.638 220.885 172.972C219.335 179.246 223.18 185.608 229.449 187.158C235.719 188.708 242.085 184.863 243.635 178.594C245.185 172.32 241.34 165.958 235.071 164.408C234.132 164.177 233.188 164.066 232.262 164.066V164.061Z" fill="#EE8100"/>
<path d="M189.789 187.046C188.054 187.046 186.175 186.727 184.311 185.834C182.876 185.145 181.576 184.178 180.457 182.952C180.11 182.577 180.137 181.989 180.512 181.642C180.892 181.295 181.475 181.323 181.822 181.698C182.779 182.743 183.89 183.576 185.111 184.159C189.867 186.44 194.86 184.33 196.275 183.632C196.734 183.405 197.289 183.595 197.515 184.053C197.742 184.511 197.552 185.066 197.094 185.293C196.03 185.82 193.185 187.042 189.789 187.042V187.046Z" fill="#303F8D"/>
<path d="M241.798 175.345C241.294 175.345 240.877 174.938 240.873 174.429C240.864 173.563 240.678 172.263 239.855 170.968C239.346 170.163 238.643 169.464 237.833 168.946C237.403 168.673 237.273 168.099 237.551 167.669C237.824 167.239 238.397 167.109 238.828 167.387C239.869 168.048 240.766 168.946 241.419 169.982C242.474 171.648 242.71 173.309 242.723 174.415C242.728 174.924 242.321 175.345 241.807 175.349H241.798V175.345Z" fill="white"/>
<path d="M236.033 167.41C235.922 167.41 235.806 167.392 235.695 167.345L234.797 166.994C234.321 166.804 234.09 166.267 234.275 165.795C234.46 165.319 235.001 165.083 235.473 165.273L236.371 165.624C236.847 165.809 237.083 166.346 236.893 166.823C236.75 167.188 236.403 167.41 236.033 167.41Z" fill="white"/>
</g>
<defs>
<filter id="filter0_d_1581_6069" x="12.5" y="0" width="336" height="336" filterUnits="userSpaceOnUse" color-interpolation-filters="sRGB">
<feFlood flood-opacity="0" result="BackgroundImageFix"/>
<feColorMatrix in="SourceAlpha" type="matrix" values="0 0 0 0 0 0 0 0 0 0 0 0 0 0 0 0 0 0 127 0" result="hardAlpha"/>
<feOffset/>
<feGaussianBlur stdDeviation="49"/>
<feColorMatrix type="matrix" values="0 0 0 0 0.956863 0 0 0 0 0.85098 0 0 0 0 0.243137 0 0 0 1 0"/>
<feBlend mode="normal" in2="BackgroundImageFix" result="effect1_dropShadow_1581_6069"/>
<feBlend mode="normal" in="SourceGraphic" in2="effect1_dropShadow_1581_6069" result="shape"/>
</filter>
<clipPath id="clip0_1581_6069">
<rect width="140" height="140" fill="white" transform="translate(111 98.5)"/>
</clipPath>
</defs>
</svg>
