<svg width="377" height="250" viewBox="0 100 377 120" fill="none" xmlns="http://www.w3.org/2000/svg">
<path d="M267.998 236.5C246.398 236.5 230.732 230.967 220.998 219.9C211.265 208.7 206.398 192.1 206.398 170.1C206.398 148.1 211.265 131.567 220.998 120.5C230.732 109.3 246.398 103.7 267.998 103.7C289.598 103.7 305.265 109.3 314.998 120.5C324.732 131.567 329.598 148.1 329.598 170.1C329.598 192.1 324.732 208.7 314.998 219.9C305.265 230.967 289.598 236.5 267.998 236.5ZM267.998 204.5C276.398 204.5 282.332 201.7 285.798 196.1C289.398 190.5 291.198 181.833 291.198 170.1C291.198 158.367 289.398 149.7 285.798 144.1C282.332 138.5 276.398 135.7 267.998 135.7C259.598 135.7 253.598 138.5 249.998 144.1C246.532 149.567 244.798 158.233 244.798 170.1C244.798 181.833 246.532 190.5 249.998 196.1C253.598 201.7 259.598 204.5 267.998 204.5Z" fill="#CAD2FC"/>
<path d="M75.7586 236.5C69.2253 236.5 62.0253 235.9 54.1586 234.7C46.4253 233.633 40.0919 231.967 35.1586 229.7V199.5C39.5586 201.633 45.1586 203.367 51.9586 204.7C58.8919 205.9 64.8253 206.5 69.7586 206.5C77.0919 206.5 82.4253 205.367 85.7586 203.1C89.2253 200.833 90.9586 197.233 90.9586 192.3C90.9586 187.633 89.6919 184.3 87.1586 182.3C84.6253 180.167 80.1586 179.1 73.7586 179.1H34.5586V161.9L37.9586 105.7H121.359L118.759 134.5H70.1586L68.9586 152.9H83.5586C114.092 152.9 129.359 166.5 129.359 193.7C129.359 206.9 124.759 217.367 115.559 225.1C106.492 232.7 93.2253 236.5 75.7586 236.5Z" fill="#CAD2FC"/>
<g filter="url(#filter0_d_218_4830)">
<path d="M250.5 181.443L250.454 154.321L213.218 154.381L239.502 128.014L220.292 108.864L194.008 135.236L193.943 98L166.821 98.0463L166.886 135.282L140.509 108.998L121.364 128.203L147.74 154.492L110.5 154.557L110.546 181.679L147.782 181.619L121.493 207.991L140.708 227.141L166.997 200.76L167.057 238L194.179 237.958L194.119 200.713L220.491 227.002L239.636 207.792L213.26 181.503L250.5 181.443Z" fill="#FAF79E"/>
</g>
<g clip-path="url(#clip0_218_4830)">
<path d="M250.803 181.443L250.757 154.321L213.578 154.381L239.821 128.014L220.638 108.864L194.39 135.236L194.326 98L167.242 98.0463L167.307 135.282L140.971 108.998L121.853 128.203L148.193 154.492L111 154.557L111.051 181.679L148.23 181.614L121.982 207.991L141.165 227.141L167.417 200.76L167.482 238L194.566 237.954L194.501 200.713L220.841 226.998L239.96 207.792L213.615 181.503L250.803 181.443Z" fill="#FAF79E"/>
<path d="M228.935 197.063C228.824 196.729 228.293 195.008 229.222 193.347C230.441 191.164 233.075 191.076 233.274 191.071C235.838 191.025 238.448 193.361 239.312 196.915" fill="#FAF79E"/>
<path d="M228.936 197.989C228.548 197.989 228.188 197.744 228.059 197.355C227.818 196.633 227.379 194.755 228.414 192.899C229.879 190.276 232.914 190.156 233.256 190.146C233.284 190.146 233.316 190.146 233.344 190.146C236.403 190.146 239.281 192.886 240.205 196.693C240.325 197.188 240.02 197.693 239.526 197.813C239.027 197.933 238.528 197.628 238.408 197.133C237.683 194.144 235.557 191.997 233.344 191.997C233.326 191.997 233.303 191.997 233.284 191.997C233.192 191.997 230.997 192.053 230.027 193.802C229.329 195.051 229.685 196.393 229.814 196.777C229.976 197.262 229.713 197.785 229.228 197.947C229.131 197.98 229.033 197.993 228.936 197.993V197.989Z" fill="#303F8D"/>
<path d="M192.82 170.505C192.82 170.533 192.83 170.561 192.83 170.589C192.848 170.367 192.871 170.154 192.88 169.932C192.871 170.126 192.82 170.311 192.82 170.51V170.505Z" fill="white"/>
<path d="M203.363 154.076H203.359C197.337 154.076 192.455 158.965 192.455 164.995V167.336C192.455 173.367 197.337 178.255 203.359 178.255H203.363C209.385 178.255 214.267 173.367 214.267 167.336V164.995C214.267 158.965 209.385 154.076 203.363 154.076Z" fill="white"/>
<path d="M203.359 179.18C196.835 179.18 191.531 173.864 191.531 167.335V164.999C191.531 158.466 196.84 153.154 203.359 153.154C209.878 153.154 215.187 158.47 215.187 164.999V167.335C215.187 173.868 209.878 179.18 203.359 179.18ZM203.359 155C197.856 155 193.379 159.484 193.379 164.994V167.331C193.379 172.841 197.856 177.324 203.359 177.324C208.862 177.324 213.339 172.841 213.339 167.331V164.994C213.339 159.484 208.862 155 203.359 155Z" fill="#303F8D"/>
<path d="M202.245 163.205H212.285V168.234C212.285 171.01 210.035 173.264 207.262 173.264C204.49 173.264 202.24 171.01 202.24 168.234V163.205H202.245Z" fill="#303F8D"/>
<path d="M185.621 154.076H185.617C179.595 154.076 174.713 158.965 174.713 164.995V167.336C174.713 173.367 179.595 178.255 185.617 178.255H185.621C191.643 178.255 196.525 173.367 196.525 167.336V164.995C196.525 158.965 191.643 154.076 185.621 154.076Z" fill="white"/>
<path d="M185.621 179.18C179.097 179.18 173.793 173.864 173.793 167.335V164.999C173.793 158.466 179.102 153.154 185.621 153.154C192.14 153.154 197.448 158.47 197.448 164.999V167.335C197.448 173.868 192.14 179.18 185.621 179.18ZM185.621 155C180.118 155 175.641 159.484 175.641 164.994V167.331C175.641 172.841 180.118 177.324 185.621 177.324C191.123 177.324 195.6 172.841 195.6 167.331V164.994C195.6 159.484 191.123 155 185.621 155Z" fill="#303F8D"/>
<path d="M214.077 162.047H174.902V163.898H214.077V162.047Z" fill="#303F8D"/>
<path d="M184.448 162.973H194.488V168.002C194.488 170.778 192.238 173.031 189.466 173.031C186.693 173.031 184.443 170.778 184.443 168.002V162.973H184.448Z" fill="#303F8D"/>
<path d="M214.078 162.973C213.131 157.912 208.695 154.076 203.363 154.076C198.032 154.076 193.592 157.907 192.645 162.973H214.078Z" fill="#FAF79E"/>
<path d="M191.531 163.898L191.735 162.802C192.779 157.208 197.672 153.15 203.364 153.15C209.056 153.15 213.939 157.208 214.988 162.802L215.191 163.898H191.531ZM193.823 162.048H212.9C211.629 157.902 207.781 155.001 203.364 155.001C198.947 155.001 195.093 157.902 193.823 162.048Z" fill="#303F8D"/>
<path d="M196.336 162.973C195.388 157.912 190.953 154.076 185.621 154.076C180.29 154.076 175.849 157.907 174.902 162.973H196.336Z" fill="#FAF79E"/>
<path d="M173.789 163.898L173.992 162.802C175.037 157.208 179.929 153.15 185.621 153.15C191.314 153.15 196.197 157.208 197.246 162.802L197.449 163.898H173.789ZM176.081 162.048H195.158C193.887 157.902 190.038 155.001 185.621 155.001C181.205 155.001 177.351 157.902 176.081 162.048Z" fill="#303F8D"/>
<path d="M279.194 202.185C278.348 202.088 277.757 201.926 277.41 201.75C277.489 201.94 278.621 202.301 279.194 202.185Z" fill="#FAF79E"/>
<path d="M281.776 201.989C279.263 201.11 278.09 201.554 280.774 202.114C278.944 203.808 276.371 206.686 274.666 210.914C274.56 211.178 274.306 211.83 274.019 212.784C273.169 215.647 272.074 221.241 273.996 227.339C274.246 228.13 274.495 228.764 274.666 229.181C274.028 228.986 263.471 225.771 258.754 224.336C262.473 225.502 268.212 227.76 271.727 228.63C275.313 229.518 277.494 231.36 280.631 228.339C284.553 224.568 285.791 217.022 285.99 211.793C286.11 208.67 285.417 203.266 281.781 201.989H281.776Z" fill="#303F8D"/>
<path d="M257.988 224.102C257.309 223.894 256.833 223.75 256.625 223.686C256.861 223.773 257.258 223.884 257.988 224.102Z" fill="#EE8100"/>
<path d="M226.127 207.149C226.127 207.149 226.127 207.149 226.127 207.158C226.132 207.103 226.127 207.107 226.127 207.149Z" fill="#EE8100"/>
<path d="M225.738 210.369C225.733 210.42 225.733 210.429 225.738 210.369V210.369Z" fill="#EE8100"/>
<path d="M258.754 225.262C258.666 225.262 258.574 225.248 258.486 225.22L257.719 224.989C257.243 224.845 256.971 224.35 257.091 223.874C257.216 223.393 257.696 223.101 258.181 223.198C258.209 223.203 258.25 223.217 258.274 223.221C258.505 223.291 258.763 223.369 259.027 223.453C259.512 223.605 259.784 224.124 259.632 224.609C259.507 225.007 259.142 225.262 258.749 225.262H258.754Z" fill="#303F8D"/>
<path d="M256.624 224.614C256.537 224.614 256.444 224.601 256.356 224.573L256.236 224.536C255.95 224.448 255.724 224.226 255.627 223.944C255.608 223.893 255.594 223.823 255.585 223.768C255.539 223.43 255.677 223.092 255.955 222.889C256.227 222.685 256.592 222.653 256.902 222.801L256.943 222.819C257.415 222.99 257.659 223.509 257.502 223.981C257.373 224.365 257.013 224.61 256.629 224.61L256.624 224.614Z" fill="#303F8D"/>
<path d="M263.619 198.544C261.503 198.359 261.351 198.937 259.701 198.775C257.197 198.525 254.568 197.332 252.027 197.045C249.273 196.249 246.446 195.675 243.651 195.023C242.583 194.773 241.003 195.694 239.853 195.62C238.083 195.509 238.254 195.68 237.256 195.726C236.489 195.763 235.893 195.273 235.219 195.074C233.172 194.472 231.647 195.152 230.243 196.633C229.48 197.433 228.224 199.636 227.572 200.085C227.101 200.408 227.397 200.765 226.87 200.668C226.607 201.269 226.838 201.126 226.639 201.815C225.59 205.484 225.331 204.512 226.121 207.154C226.126 207.113 226.131 207.108 226.121 207.163C226.121 207.163 226.121 207.159 226.121 207.154C226.08 207.469 225.78 210.009 225.738 210.379C226.348 208.459 226.616 210.411 227.078 211.124C228.127 212.748 231.375 214.219 233.149 215.08C236.72 216.815 240.384 217.916 244.228 218.869C246.617 219.461 253.894 220.59 255.381 222.182C256.439 223.311 256.088 223.45 256.499 223.644C256.536 223.662 256.578 223.676 256.624 223.695C256.827 223.755 257.308 223.903 257.987 224.111C257.992 224.111 257.996 224.111 258.006 224.111C258.246 224.181 258.495 224.259 258.754 224.338C263.471 225.772 274.028 228.988 274.666 229.182C274.495 228.766 274.246 228.127 273.996 227.341C272.079 221.243 273.174 215.649 274.019 212.785C274.301 211.832 274.56 211.179 274.666 210.916C276.371 206.687 278.949 203.809 280.774 202.116C275.054 200.927 269.334 199.738 263.619 198.544Z" fill="#EE8100"/>
<path d="M281.662 201.865C281.569 201.532 281.297 201.278 280.959 201.208L263.805 197.636C263.587 197.59 263.356 197.627 263.162 197.738C263.061 197.798 262.945 197.859 262.83 197.923C262.682 198.002 262.525 198.094 262.354 198.187C262.275 198.15 262.192 198.118 262.104 198.104L237.917 194.351C237.654 194.31 237.4 194.388 237.201 194.546C235.885 194.06 233.579 193.269 231.347 194.254C229.601 195.027 228.654 196.632 227.651 198.33C227.203 199.089 226.884 199.779 226.635 200.394C226.007 200.093 225.406 200.019 224.851 200.181C223.091 200.709 222.791 203.165 222.444 206.011C222.361 206.691 222.278 207.394 222.172 208.088C222.102 208.491 221.16 211.637 219.603 216.847L219.326 217.777C217.709 223.167 216.817 226.137 217.187 230.107C217.348 231.851 217.746 233.952 219.386 234.724C219.806 234.923 220.259 235.011 220.712 235.011C221.59 235.011 222.467 234.687 223.096 234.252C225.928 232.291 225.249 227.146 224.921 224.675L224.879 224.36C224.339 220.141 224.51 215.329 225.387 209.985C225.558 210.554 225.854 211.304 226.404 212.09C226.681 212.484 227 212.854 227.346 213.191C227.439 213.279 227.55 213.349 227.67 213.39C233.819 215.63 240.098 217.758 246.331 219.724C247.514 220.099 248.613 220.455 249.685 220.802C251.561 221.413 253.344 221.992 255.35 222.579C255.493 223.352 255.599 223.842 255.604 223.856C255.678 224.18 255.918 224.434 256.237 224.532L274.399 230.061C274.486 230.088 274.579 230.102 274.667 230.102C274.925 230.102 275.175 229.996 275.35 229.797C275.591 229.533 275.655 229.154 275.521 228.821C275.286 228.247 275.069 227.655 274.879 227.053C273.031 221.186 274.103 215.755 274.907 213.039C275.096 212.4 275.309 211.78 275.521 211.253C276.815 208.051 278.793 205.201 281.403 202.786C281.657 202.55 281.759 202.194 281.666 201.861L281.662 201.865ZM223.045 224.601L223.087 224.925C223.322 226.702 223.946 231.416 222.042 232.735C221.543 233.082 220.716 233.313 220.176 233.059C219.571 232.772 219.196 231.754 219.03 229.94C218.693 226.331 219.547 223.481 221.1 218.313L221.382 217.379C222.403 213.96 223.05 211.794 223.447 210.434C222.648 215.662 222.514 220.4 223.05 224.601H223.045ZM224.385 205.405C224.556 204.1 224.791 202.624 225.17 202.124C224.884 203.235 224.62 204.331 224.385 205.405ZM227.915 211.031C227.282 210.124 227.092 209.268 227 208.856C226.482 206.497 227.356 203.92 227.878 202.374C228.16 201.546 228.506 200.519 229.241 199.27C230.16 197.71 230.885 196.475 232.091 195.948C233.722 195.226 235.593 195.92 236.707 196.336C237.09 196.48 237.368 196.582 237.608 196.623C236.61 197.387 235.709 198.243 234.928 199.196C231.204 203.734 230.858 209.18 231.13 212.664C230.248 212.349 229.365 212.039 228.488 211.72C228.275 211.507 228.086 211.276 227.915 211.031ZM250.258 219.044C249.182 218.693 248.077 218.332 246.885 217.957C242.274 216.504 237.64 214.964 233.057 213.349C232.757 210.735 232.618 204.928 236.36 200.366C237.206 199.334 238.209 198.418 239.336 197.646C239.715 197.387 239.835 196.892 239.645 196.489L260.256 199.686C259.988 199.936 259.725 200.209 259.471 200.519C256.874 203.716 254.546 210.92 254.583 215.634C254.596 217.268 254.795 219.054 255.017 220.548C253.377 220.058 251.852 219.562 250.263 219.044H250.258ZM273.807 210.564C273.567 211.156 273.341 211.813 273.133 212.516C272.269 215.435 271.118 221.274 273.114 227.613C273.128 227.659 273.142 227.706 273.16 227.752L257.299 222.921C257.05 221.668 256.449 218.355 256.431 215.621C256.398 211.332 258.574 204.563 260.903 201.685C261.781 200.602 262.857 200.01 263.717 199.538C263.731 199.529 263.749 199.52 263.763 199.51L278.894 202.661C276.695 204.984 274.985 207.635 273.803 210.559L273.807 210.564Z" fill="#303F8D"/>
<path d="M196.336 162.257C195.388 157.195 190.953 153.359 185.621 153.359C180.29 153.359 175.849 157.19 174.902 162.257H196.336Z" fill="#FAF79E"/>
<path d="M173.789 163.181L173.992 162.085C175.037 156.491 179.929 152.434 185.621 152.434C191.314 152.434 196.197 156.491 197.246 162.085L197.449 163.181H173.789ZM176.081 161.331H195.158C193.887 157.185 190.038 154.284 185.621 154.284C181.205 154.284 177.351 157.185 176.081 161.331Z" fill="#303F8D"/>
<path d="M189.022 184.867C187.586 184.867 186.029 184.765 184.421 184.502C182.951 184.261 181.561 183.905 180.29 183.442C179.81 183.266 179.565 182.734 179.74 182.258C179.916 181.777 180.447 181.527 180.923 181.707C182.087 182.133 183.363 182.457 184.721 182.683C190.007 183.549 194.705 182.531 196.022 182.198C196.512 182.068 197.02 182.373 197.145 182.868C197.269 183.364 196.969 183.868 196.475 183.993C195.472 184.247 192.626 184.876 189.022 184.876V184.867Z" fill="#303F8D"/>
<path d="M253.715 206.774C254.255 205.646 254.722 203.98 253.844 201.518C253.35 200.13 251.659 197.128 249.487 195.809C247.011 194.301 244.285 192.52 239.849 193.63C239.018 193.838 236.504 194.805 234.324 197.188C231.612 200.149 233.497 204.244 234.416 205.951C235.881 208.667 239.443 211.734 240.27 212.192C243.957 214.233 246.207 214.186 249.663 211.697C251.34 210.49 252.957 208.366 253.715 206.779V206.774Z" fill="#FAF79E"/>
<path d="M244.802 214.57C243.287 214.57 241.707 214.043 239.821 212.997C238.879 212.474 235.174 209.3 233.603 206.385C231.431 202.356 231.445 198.955 233.644 196.554C235.834 194.166 238.435 193.023 239.623 192.723C244.298 191.552 247.32 193.394 249.746 194.874L249.967 195.008C252.324 196.443 254.13 199.566 254.712 201.199C255.489 203.369 255.433 205.321 254.546 207.172C253.793 208.745 252.111 211.063 250.198 212.442C248.221 213.867 246.549 214.57 244.802 214.57ZM242.51 194.208C241.762 194.208 240.953 194.305 240.071 194.527C239.147 194.758 236.902 195.744 235.003 197.812C232.96 200.042 233.995 203.23 235.229 205.511C236.587 208.033 240.029 211.003 240.713 211.382C244.132 213.275 246.022 213.177 249.117 210.947C250.693 209.814 252.199 207.792 252.878 206.381C253.299 205.502 253.77 204.072 252.971 201.833C252.569 200.704 251.012 197.821 249.006 196.605L248.785 196.47C246.96 195.36 245.089 194.217 242.51 194.217V194.208Z" fill="#303F8D"/>
<path d="M237.621 210.684C237.39 210.684 237.155 210.596 236.975 210.42C236.61 210.064 236.605 209.477 236.961 209.111C237.945 208.107 238.384 207.524 239.627 205.349C240.842 203.221 243.715 197.924 244.21 194.68C244.288 194.176 244.76 193.829 245.263 193.908C245.767 193.986 246.113 194.458 246.035 194.963C245.513 198.386 242.801 203.513 241.23 206.27C239.982 208.459 239.432 209.231 238.282 210.407C238.102 210.592 237.862 210.684 237.621 210.684Z" fill="#303F8D"/>
<path d="M243.462 214.186C243.226 214.186 242.99 214.098 242.81 213.918C242.445 213.557 242.445 212.974 242.801 212.608C243.78 211.613 244.432 210.808 245.679 208.648L245.841 208.37C247.31 205.83 248.83 203.202 250.369 197.932C250.512 197.442 251.025 197.16 251.515 197.303C252.004 197.446 252.286 197.96 252.143 198.45C250.544 203.938 248.964 206.663 247.44 209.3L247.278 209.578C245.938 211.9 245.189 212.826 244.113 213.913C243.933 214.098 243.693 214.186 243.457 214.186H243.462Z" fill="#303F8D"/>
</g>
<defs>
<filter id="filter0_d_218_4830" x="12.5" y="0" width="336" height="336" filterUnits="userSpaceOnUse" color-interpolation-filters="sRGB">
<feFlood flood-opacity="0" result="BackgroundImageFix"/>
<feColorMatrix in="SourceAlpha" type="matrix" values="0 0 0 0 0 0 0 0 0 0 0 0 0 0 0 0 0 0 127 0" result="hardAlpha"/>
<feOffset/>
<feGaussianBlur stdDeviation="49"/>
<feColorMatrix type="matrix" values="0 0 0 0 0.956863 0 0 0 0 0.85098 0 0 0 0 0.243137 0 0 0 1 0"/>
<feBlend mode="normal" in2="BackgroundImageFix" result="effect1_dropShadow_218_4830"/>
<feBlend mode="normal" in="SourceGraphic" in2="effect1_dropShadow_218_4830" result="shape"/>
</filter>
<clipPath id="clip0_218_4830">
<rect width="175" height="140" fill="white" transform="translate(111 98)"/>
</clipPath>
</defs>
</svg>
