<svg width="391" height="38" viewBox="0 0 391 38" fill="none" xmlns="http://www.w3.org/2000/svg">
<g clip-path="url(#clip0_1327_19512)">
<path d="M30.6246 23.4843C30.6246 15.2716 35.5094 10.0586 43.1982 10.0586C50.0557 10.0586 54.472 14.2709 54.472 20.9059H50.6276C50.5747 16.5889 47.7178 13.8497 43.2486 13.8497C38.1043 13.8497 34.7789 17.5871 34.7789 23.4843C34.7789 29.3815 38.001 33.119 42.9891 33.119C47.6649 33.119 50.6779 30.4333 50.7308 26.17H54.5752C54.5752 32.6978 50.0028 36.9101 42.8859 36.9101C35.4036 36.9101 30.6221 31.697 30.6221 23.4843H30.6246Z" fill="#303F8D"/>
<path d="M58.5781 0H62.7349V36.4887H58.5781V0Z" fill="#303F8D"/>
<path d="M66.4756 29.01C66.4756 25.3236 69.0226 22.1657 75.88 22.1657H86.3249V20.2714C86.3249 15.7962 83.7275 13.6364 78.4799 13.6364C73.7512 13.6364 71.1539 15.426 71.1539 18.9541C71.1539 19.1124 71.1539 19.48 71.2068 19.9012H67.3624C67.3095 19.5336 67.2591 18.7958 67.2591 18.321C67.2591 13.1616 71.6224 10.0547 78.5857 10.0547C86.1208 10.0547 90.4842 13.8458 90.4842 20.6365V36.4849H86.3274C86.3803 35.2748 86.4836 32.8521 86.5365 30.3248H86.4836C85.5993 34.3252 82.3797 36.9061 75.9883 36.9061C70.1688 36.9061 66.4806 33.9039 66.4806 29.0075L66.4756 29.01ZM86.3224 25.5891V25.2215H76.2428C72.0331 25.2215 70.3704 26.4852 70.3704 29.0126C70.3704 31.5399 72.7612 33.3295 76.8121 33.3295C82.6316 33.3295 86.3198 30.3273 86.3198 25.5891H86.3224Z" fill="#303F8D"/>
<path d="M94.8457 1.84375H99.3149V7.16145H94.8457V1.84375ZM95.0019 10.4777H99.1587V36.4892H95.0019V10.4777Z" fill="#303F8D"/>
<path d="M103.938 10.4759H108.094L107.991 18.0044H108.044C109.238 13.4756 111.888 10.0547 117.395 10.0547C122.903 10.0547 126.228 13.9504 126.228 20.2178C126.228 22.0074 126.072 23.9042 125.968 24.8513H122.174C122.278 24.0625 122.384 22.7452 122.384 21.1139C122.384 16.3221 120.618 13.8483 116.408 13.8483C111.16 13.8483 108.094 18.4818 108.094 24.9585V36.49H103.938V10.4759Z" fill="#303F8D"/>
<path d="M152.935 24.3254H132.826C133.085 29.855 136.411 33.3295 141.452 33.3295C145.765 33.3295 148.725 31.1187 149.09 27.6953H152.935C152.675 33.3295 148.155 36.9087 141.399 36.9087C133.657 36.9087 128.669 31.7493 128.669 23.6923C128.669 15.6353 133.604 10.0547 141.295 10.0547C148.987 10.0547 152.935 14.6346 152.935 22.375V24.3229V24.3254ZM149.09 20.9556C149.09 16.3757 146.284 13.6364 141.401 13.6364C136.829 13.6364 133.763 16.3221 132.984 21.2722H149.093V20.9556H149.09Z" fill="#303F8D"/>
<path d="M156.156 26.5369V10.4766H160.313V25.7991C160.313 30.2743 163.223 33.1183 168.108 33.1183C174.083 33.1183 177.928 29.0643 177.928 22.2199V10.4791H182.085V36.4907H177.928C178.031 34.7521 178.137 31.4895 178.137 28.8549H178.084C176.993 33.7514 173.355 36.9119 166.964 36.9119C160.573 36.9119 156.156 32.8579 156.156 26.5394V26.5369Z" fill="#303F8D"/>
<path d="M186.604 10.4759H190.761L190.658 18.0044H190.711C191.905 13.4756 194.555 10.0547 200.062 10.0547C205.57 10.0547 208.895 13.9504 208.895 20.2178C208.895 22.0074 208.739 23.9042 208.635 24.8513H204.841C204.945 24.0625 205.051 22.7452 205.051 21.1139C205.051 16.3221 203.285 13.8483 199.075 13.8483C193.827 13.8483 190.761 18.4818 190.761 24.9585V36.49H186.604V10.4759Z" fill="#303F8D"/>
<path d="M223.089 10.5469H238.857C246.458 10.5469 250.38 13.7023 250.38 19.4795C250.38 25.2567 246.578 28.2896 239.058 28.2896H225.716V37.5081H223.089V10.5469ZM238.698 26.117C244.722 26.117 247.755 23.9854 247.755 19.5203C247.755 15.0553 244.926 12.9236 238.497 12.9236H225.719V26.117H238.698Z" fill="#303F8D"/>
<path d="M255.597 25.3793V10.5469H258.224V25.0908C258.224 32.221 262.671 35.6215 270.516 35.6215C278.361 35.6215 282.848 32.221 282.848 25.0908V10.5469H285.354V25.3793C285.354 33.9417 279.935 37.9983 270.516 37.9983C261.096 37.9983 255.597 33.9417 255.597 25.3793Z" fill="#303F8D"/>
<path d="M291.66 10.5469H307.995C315.515 10.5469 318.143 13.7023 318.143 17.552C318.143 20.2556 316.646 22.6323 313.656 23.3701V23.411C317.578 23.9854 319.599 26.6481 319.599 29.5558C319.599 34.2685 316.687 37.503 309.814 37.503H291.66V10.5469ZM309.733 22.5098C313.817 22.5098 315.757 20.3781 315.757 17.8814C315.757 15.2595 313.898 12.9236 307.791 12.9236H294.285V22.5098H309.731H309.733ZM309.169 35.1314C314.91 35.1314 317.095 32.7546 317.095 29.3541C317.095 26.8548 314.749 24.6823 310.058 24.6823H294.29V35.1314H309.169Z" fill="#303F8D"/>
<path d="M325.018 10.5469H327.645V35.1314H347.054V37.5081H325.018V10.5469Z" fill="#303F8D"/>
<path d="M351.903 10.5469H354.571V37.5056H351.903V10.5469Z" fill="#303F8D"/>
<path d="M360.111 24.0676C360.111 16.2838 365.651 10.0547 376 10.0547C386.916 10.0547 390.798 16.4063 390.798 20.5037V20.7897H388.291V20.6263C388.291 17.3892 385.016 12.4314 376.081 12.4314C367.145 12.4314 362.779 17.2666 362.779 24.0676C362.779 29.9265 366.54 35.622 376.242 35.622C384.611 35.622 388.493 31.4429 388.493 27.4681V27.3047H391V27.5497C391 32.385 386.47 37.9988 376.242 37.9988C364.396 37.9988 360.108 30.9528 360.108 24.0676H360.111Z" fill="#303F8D"/>
<path d="M27.1753 23.2952C27.1753 19.6394 25.757 16.1879 23.1798 13.5763C20.6026 10.9646 17.1965 9.52734 13.5889 9.52734C9.98134 9.52734 6.57277 10.9646 3.99809 13.5788C1.4234 16.1828 0.00505088 19.6266 1.23469e-05 23.2747C-0.0100647 30.8518 6.14954 37.0834 13.6267 37.063C17.6021 37.0528 21.3432 35.3321 23.9104 32.3452C24.0111 32.2278 24.1144 32.1078 24.2177 31.9878C24.9684 31.1071 25.5932 30.1242 26.082 29.0724L26.4951 28.1763H22.5978L22.1746 28.8477C20.2574 31.8831 16.9698 33.6753 13.4101 33.6115C7.77698 33.5144 3.22971 28.669 3.40858 22.9607C3.49171 20.3491 4.54729 17.8932 6.40146 16.0117C8.33626 14.0511 10.8883 12.9712 13.5864 12.9712C16.2845 12.9712 18.8366 14.0511 20.7714 16.0092C22.3031 17.5613 23.2805 19.4684 23.6282 21.5668H16.8388L18.31 20.0708L16.7758 18.5212L14.6773 20.6555L14.6722 17.643H12.5082L12.5132 20.658L10.4071 18.5314L8.8779 20.0862L10.984 22.2127L8.01128 22.2178L8.01631 24.4108L10.989 24.4057L8.8905 26.5399L10.4247 28.0895L12.5233 25.9553L12.5283 28.9677H14.6924L14.6873 25.9502L16.7934 28.0768L18.3226 26.522L16.8287 25.0133H27.1753V23.2901V23.2952Z" fill="#EE8100"/>
<path d="M21.144 0H16.2743L9.02637 7.43151H13.8105L21.144 0Z" fill="#EE8100"/>
</g>
<defs>
<clipPath id="clip0_1327_19512">
<rect width="391" height="38" fill="white"/>
</clipPath>
</defs>
</svg>
