<svg width="54" height="36" viewBox="0 0 54 36" fill="none" xmlns="http://www.w3.org/2000/svg">
<g clip-path="url(#clip0_6_606)">
<path d="M52.7378 16.5122C52.7378 8.13205 46.364 1.33862 38.5015 1.33862C30.6389 1.33862 24.2651 8.13205 24.2651 16.5122V19.6361C24.2651 28.0163 30.6389 34.8097 38.5015 34.8097C46.364 34.8097 52.7378 28.0163 52.7378 19.6361V16.5122Z" fill="white"/>
<path d="M38.5716 35.9998C30.0158 35.9998 23.1431 28.7105 23.1431 19.6361V16.3634C23.1431 7.28901 30.0158 -0.000244141 38.5716 -0.000244141C47.1274 -0.000244141 54.0001 7.28901 54.0001 16.3634V19.6361C54.0001 28.7105 47.1274 35.9998 38.5716 35.9998ZM38.5716 2.52868C31.4184 2.52868 25.5275 8.77661 25.5275 16.3634V19.6361C25.5275 27.2229 31.4184 33.4708 38.5716 33.4708C45.7248 33.4708 51.6157 27.2229 51.6157 19.6361V16.3634C51.6157 8.77661 45.7248 2.52868 38.5716 2.52868Z" fill="#303F8D"/>
<path d="M39.4131 13.5369H52.5975V20.5286C52.5975 24.3964 49.652 27.5203 46.0053 27.5203C42.3585 27.5203 39.4131 24.3964 39.4131 20.5286V13.5369Z" fill="#303F8D"/>
<path d="M29.5952 16.5122C29.5952 8.13205 23.2214 1.33862 15.3589 1.33862C7.49638 1.33862 1.12256 8.13205 1.12256 16.5122V19.6361C1.12256 28.0163 7.49638 34.8097 15.3589 34.8097C23.2214 34.8097 29.5952 28.0163 29.5952 19.6361V16.5122Z" fill="white"/>
<path d="M15.4285 36C6.87271 36 0 28.7107 0 19.6364V16.3636C0 7.28926 6.87271 0 15.4285 0C23.9843 0 30.8571 7.28926 30.8571 16.3636V19.6364C30.8571 28.7107 23.9843 36 15.4285 36ZM15.4285 2.52893C8.2753 2.52893 2.38441 8.77686 2.38441 16.3636V19.6364C2.38441 27.2231 8.2753 33.4711 15.4285 33.4711C22.5818 33.4711 28.4727 27.2231 28.4727 19.6364V16.3636C28.4727 8.77686 22.5818 2.52893 15.4285 2.52893Z" fill="#303F8D"/>
<path d="M52.5975 12.3469H1.40283V14.8758H52.5975V12.3469Z" fill="#303F8D"/>
<path d="M16.5513 13.5369H29.7356V20.5286C29.7356 24.3964 26.7902 27.5203 23.1435 27.5203C19.4967 27.5203 16.5513 24.3964 16.5513 20.5286V13.5369Z" fill="#303F8D"/>
<path d="M52.5973 13.537C51.3349 6.54531 45.5843 1.18994 38.5713 1.18994C31.5584 1.18994 25.8077 6.54531 24.5454 13.537H52.5973Z" fill="white"/>
<path d="M23.1431 14.8758L23.4236 13.3882C24.8262 5.65265 31.1378 -0.000244141 38.5716 -0.000244141C46.0053 -0.000244141 52.4573 5.65265 53.7196 13.3882L54.0001 14.8758H23.1431ZM26.0885 12.3469H51.0547C49.3716 6.54521 44.3222 2.52868 38.5716 2.52868C32.821 2.52868 27.7716 6.54521 26.0885 12.3469Z" fill="#303F8D"/>
<path d="M29.4547 13.537C28.1924 6.54531 22.4417 1.18994 15.4288 1.18994C8.4158 1.18994 2.66517 6.54531 1.40283 13.537H29.4547Z" fill="white"/>
<path d="M0 14.876L0.28052 13.3884C1.68311 5.65289 7.99478 0 15.4285 0C22.8623 0 29.3142 5.65289 30.5765 13.3884L30.8571 14.876H0ZM2.94544 12.3471H27.9116C26.2285 6.54546 21.1792 2.52893 15.4285 2.52893C9.6779 2.52893 4.62856 6.54546 2.94544 12.3471Z" fill="#303F8D"/>
</g>
<defs>
<clipPath id="clip0_6_606">
<rect width="54" height="36" fill="white"/>
</clipPath>
</defs>
</svg>
