<svg width="60" height="40" viewBox="0 0 60 40" fill="none" xmlns="http://www.w3.org/2000/svg">
<g clip-path="url(#clip0_6_607)">
<path d="M1.40231 18.3471C1.40231 9.03581 8.48433 1.48755 17.2204 1.48755C25.9566 1.48755 33.0386 9.03581 33.0386 18.3471V21.8181C33.0386 31.1294 25.9566 38.6776 17.2204 38.6776C8.48433 38.6776 1.40231 31.1294 1.40231 21.8181V18.3471Z" fill="white"/>
<path d="M17.1428 39.9998C26.6493 39.9998 34.2856 31.9006 34.2856 21.8179V18.1816C34.2856 8.09893 26.6493 -0.000244141 17.1428 -0.000244141C7.63637 -0.000244141 2.67029e-05 8.09893 2.67029e-05 18.1816V21.8179C2.67029e-05 31.9006 7.63637 39.9998 17.1428 39.9998ZM17.1428 2.80967C25.0909 2.80967 31.6363 9.75182 31.6363 18.1816V21.8179C31.6363 30.2477 25.0909 37.1898 17.1428 37.1898C9.19481 37.1898 2.64936 30.2477 2.64936 21.8179V18.1816C2.64936 9.75182 9.19481 2.80967 17.1428 2.80967Z" fill="#303F8D"/>
<path d="M16.2075 15.041H1.5582V22.8096C1.5582 27.1071 4.83092 30.5782 8.88286 30.5782C12.9348 30.5782 16.2075 27.1071 16.2075 22.8096V15.041Z" fill="#303F8D"/>
<path d="M27.1162 18.3471C27.1162 9.03581 34.1982 1.48755 42.9343 1.48755C51.6704 1.48755 58.7524 9.03581 58.7524 18.3471V21.8181C58.7524 31.1294 51.6704 38.6776 42.9343 38.6776C34.1982 38.6776 27.1162 31.1294 27.1162 21.8181V18.3471Z" fill="white"/>
<path d="M42.8572 40C52.3637 40 60 31.9008 60 21.8182V18.1818C60 8.09917 52.3637 0 42.8572 0C33.3507 0 25.7144 8.09917 25.7144 18.1818V21.8182C25.7144 31.9008 33.3507 40 42.8572 40ZM42.8572 2.80992C50.8052 2.80992 57.3507 9.75206 57.3507 18.1818V21.8182C57.3507 30.2479 50.8052 37.1901 42.8572 37.1901C34.9092 37.1901 28.3637 30.2479 28.3637 21.8182V18.1818C28.3637 9.75206 34.9092 2.80992 42.8572 2.80992Z" fill="#303F8D"/>
<path d="M1.55795 13.7188H58.4409V16.5287H1.55795V13.7188Z" fill="#303F8D"/>
<path d="M41.6099 15.041H26.9606V22.8096C26.9606 27.1071 30.2333 30.5782 34.2852 30.5782C38.3372 30.5782 41.6099 27.1071 41.6099 22.8096V15.041Z" fill="#303F8D"/>
<path d="M1.55831 15.0413C2.9609 7.27268 9.35049 1.32227 17.1427 1.32227C24.9349 1.32227 31.3245 7.27268 32.7271 15.0413H1.55831Z" fill="white"/>
<path d="M34.2856 16.5287L33.974 14.8758C32.4155 6.28075 25.4026 -0.000244141 17.1428 -0.000244141C8.88312 -0.000244141 1.7143 6.28075 0.311707 14.8758L2.67029e-05 16.5287H34.2856ZM31.0129 13.7188H3.27274C5.14287 7.27249 10.7532 2.80967 17.1428 2.80967C23.5324 2.80967 29.1428 7.27249 31.0129 13.7188Z" fill="#303F8D"/>
<path d="M27.2722 15.0413C28.6748 7.27268 35.0644 1.32227 42.8565 1.32227C50.6487 1.32227 57.0383 7.27268 58.4409 15.0413H27.2722Z" fill="white"/>
<path d="M60 16.5289L59.6883 14.876C58.1299 6.28099 51.1169 0 42.8572 0C34.5975 0 27.4287 6.28099 26.0261 14.876L25.7144 16.5289H60ZM56.7273 13.719H28.9871C30.8572 7.27273 36.4676 2.80992 42.8572 2.80992C49.2468 2.80992 54.8572 7.27273 56.7273 13.719Z" fill="#303F8D"/>
</g>
<defs>
<clipPath id="clip0_6_607">
<rect width="60" height="40" fill="white" transform="matrix(-1 0 0 1 60 0)"/>
</clipPath>
</defs>
</svg>
