<svg width="183" height="56" viewBox="0 0 183 56" fill="none" xmlns="http://www.w3.org/2000/svg">
<g clip-path="url(#clip0_347_1369)">
<g clip-path="url(#clip1_347_1369)">
<path d="M11.341 30.1304C11.341 26.2439 13.6611 23.7769 17.3128 23.7769C20.5697 23.7769 22.6672 25.7703 22.6672 28.9102H20.8413C20.8162 26.8673 19.4594 25.5709 17.3368 25.5709C14.8935 25.5709 13.3141 27.3396 13.3141 30.1304C13.3141 32.9212 14.8444 34.6899 17.2135 34.6899C19.4342 34.6899 20.8653 33.419 20.8904 31.4014H22.7163C22.7163 34.4906 20.5446 36.484 17.1645 36.484C13.6108 36.484 11.3398 34.017 11.3398 30.1304H11.341Z" fill="#303F8D"/>
<path d="M24.6172 19.0171H26.5914V36.285H24.6172V19.0171Z" fill="#303F8D"/>
<path d="M28.3691 32.7463C28.3691 31.0017 29.5788 29.5073 32.8357 29.5073H37.7964V28.6108C37.7964 26.493 36.5628 25.4709 34.0705 25.4709C31.8247 25.4709 30.5911 26.3178 30.5911 27.9874C30.5911 28.0623 30.5911 28.2363 30.6162 28.4357H28.7903C28.7652 28.2617 28.7413 27.9125 28.7413 27.6878C28.7413 25.2462 30.8136 23.7759 34.1208 23.7759C37.6995 23.7759 39.7719 25.57 39.7719 28.7836V36.2837H37.7976C37.8228 35.711 37.8718 34.5645 37.897 33.3685H37.8718C37.4519 35.2616 35.9227 36.483 32.8872 36.483C30.1232 36.483 28.3715 35.0623 28.3715 32.7451L28.3691 32.7463ZM37.7953 31.1274V30.9534H33.008C31.0086 30.9534 30.2189 31.5514 30.2189 32.7475C30.2189 33.9435 31.3544 34.7904 33.2784 34.7904C36.0424 34.7904 37.7941 33.3697 37.7941 31.1274H37.7953Z" fill="#303F8D"/>
<path d="M41.8438 19.8892H43.9664V22.4057H41.8438V19.8892ZM41.9179 23.9751H43.8922V36.2848H41.9179V23.9751Z" fill="#303F8D"/>
<path d="M46.1621 23.9752H48.1364L48.0873 27.538H48.1124C48.6796 25.3948 49.9383 23.7759 52.5539 23.7759C55.1694 23.7759 56.7488 25.6195 56.7488 28.5855C56.7488 29.4324 56.6747 30.33 56.6256 30.7782H54.8237C54.8727 30.4049 54.923 29.7815 54.923 29.0095C54.923 26.7418 54.0842 25.5712 52.0848 25.5712C49.5925 25.5712 48.1364 27.7639 48.1364 30.829V36.2861H46.1621V23.9752Z" fill="#303F8D"/>
<path d="M69.433 30.5294H59.8824C60.0057 33.1462 61.5851 34.7904 63.9793 34.7904C66.0277 34.7904 67.4336 33.7442 67.6071 32.1241H69.433C69.3097 34.7904 67.1632 36.4842 63.9542 36.4842C60.2773 36.4842 57.9082 34.0426 57.9082 30.2297C57.9082 26.4169 60.2522 23.7759 63.9051 23.7759C67.5581 23.7759 69.433 25.9433 69.433 29.6063V30.5281V30.5294ZM67.6071 28.9346C67.6071 26.7672 66.2742 25.4709 63.9554 25.4709C61.7837 25.4709 60.3275 26.7419 59.9578 29.0844H67.6083V28.9346H67.6071Z" fill="#303F8D"/>
<path d="M70.9629 31.5755V23.9751H72.9371V31.2263C72.9371 33.3442 74.3191 34.69 76.6391 34.69C79.4773 34.69 81.3031 32.7715 81.3031 29.5325V23.9763H83.2774V36.286H81.3031C81.3522 35.4633 81.4024 33.9193 81.4024 32.6725H81.3773C80.8592 34.9897 79.1315 36.4853 76.0959 36.4853C73.0604 36.4853 70.9629 34.5668 70.9629 31.5767V31.5755Z" fill="#303F8D"/>
<path d="M85.4238 23.9752H87.3981L87.349 27.538H87.3741C87.9413 25.3948 89.2 23.7759 91.8156 23.7759C94.4312 23.7759 96.0106 25.6195 96.0106 28.5855C96.0106 29.4324 95.9364 30.33 95.8873 30.7782H94.0854C94.1344 30.4049 94.1847 29.7815 94.1847 29.0095C94.1847 26.7418 93.3459 25.5712 91.3466 25.5712C88.8542 25.5712 87.3981 27.7639 87.3981 30.829V36.2861H85.4238V23.9752Z" fill="#303F8D"/>
<path d="M102.752 24.0088H110.241C113.851 24.0088 115.714 25.502 115.714 28.2361C115.714 30.9701 113.908 32.4053 110.337 32.4053H104V36.7679H102.752V24.0088ZM110.164 31.3772C113.025 31.3772 114.466 30.3684 114.466 28.2554C114.466 26.1424 113.122 25.1336 110.069 25.1336H104V31.3772H110.164Z" fill="#303F8D"/>
<path d="M118.191 31.0281V24.0088H119.439V30.8915C119.439 34.2659 121.551 35.8751 125.277 35.8751C129.003 35.8751 131.134 34.2659 131.134 30.8915V24.0088H132.325V31.0281C132.325 35.0801 129.751 36.9999 125.277 36.9999C120.803 36.9999 118.191 35.0801 118.191 31.0281Z" fill="#303F8D"/>
<path d="M135.318 24.0088H143.077C146.648 24.0088 147.896 25.502 147.896 27.3239C147.896 28.6033 147.185 29.7281 145.765 30.0773V30.0966C147.628 30.3684 148.588 31.6285 148.588 33.0046C148.588 35.2348 147.204 36.7655 143.94 36.7655H135.318V24.0088ZM143.902 29.6701C145.842 29.6701 146.763 28.6613 146.763 27.4798C146.763 26.239 145.88 25.1336 142.98 25.1336H136.565V29.6701H143.901H143.902ZM143.633 35.6431C146.36 35.6431 147.397 34.5184 147.397 32.9091C147.397 31.7264 146.283 30.6982 144.055 30.6982H136.566V35.6431H143.633Z" fill="#303F8D"/>
<path d="M151.16 24.0088H152.408V35.6431H161.626V36.7679H151.16V24.0088Z" fill="#303F8D"/>
<path d="M163.932 24.0088H165.199V36.7667H163.932V24.0088Z" fill="#303F8D"/>
<path d="M167.829 30.4073C167.829 26.7237 170.46 23.7759 175.376 23.7759C180.56 23.7759 182.404 26.7817 182.404 28.7208V28.8561H181.213V28.7788C181.213 27.2469 179.658 24.9007 175.414 24.9007C171.17 24.9007 169.096 27.1889 169.096 30.4073C169.096 33.18 170.883 35.8753 175.491 35.8753C179.465 35.8753 181.309 33.8976 181.309 32.0166V31.9392H182.5V32.0552C182.5 34.3434 180.348 37.0001 175.491 37.0001C169.865 37.0001 167.828 33.6657 167.828 30.4073H167.829Z" fill="#303F8D"/>
<path d="M7.95144 19H5.84917L3.99219 22.0892H5.61346L7.95144 19Z" fill="#303F8D"/>
<path d="M2.43117 34.6005V30.2862H8.17203V28.7845H2.43117V24.5512H9.52169V22.7632H0.5V36.3885H9.70356V34.6005H2.43117Z" fill="#303F8D"/>
</g>
</g>
<defs>
<clipPath id="clip0_347_1369">
<rect width="182" height="56" fill="white" transform="translate(0.5)"/>
</clipPath>
<clipPath id="clip1_347_1369">
<rect width="182" height="18" fill="white" transform="translate(0.5 19)"/>
</clipPath>
</defs>
</svg>
