<svg width="108" height="38" viewBox="0 0 108 38" fill="none" xmlns="http://www.w3.org/2000/svg">
<g clip-path="url(#clip0_1251_2803)">
<path d="M39.9166 9.76904H38.2907L36.8535 12.1332H38.1074L39.9166 9.76904Z" fill="#303F8D"/>
<path d="M35.6469 21.7089V18.4072H40.086V17.2571H35.6469V14.0173H41.1298V12.6499H34.1523V23.0763H41.2705V21.7089H35.6469Z" fill="#303F8D"/>
<path d="M42.5146 18.2744C42.5146 15.3001 44.3089 13.4121 47.1332 13.4121C49.6522 13.4121 51.2744 14.9377 51.2744 17.3406H49.8622C49.8428 15.7772 48.7934 14.7851 47.1517 14.7851C45.2621 14.7851 44.0406 16.1387 44.0406 18.2744C44.0406 20.4102 45.2242 21.7638 47.0564 21.7638C48.774 21.7638 49.8807 20.7911 49.9002 19.2471H51.3123C51.3123 21.6112 49.6327 23.1368 47.0185 23.1368C44.2701 23.1368 42.5137 21.2488 42.5137 18.2744H42.5146Z" fill="#303F8D"/>
<path d="M52.7852 9.76904H54.3114V22.984H52.7852V9.76904Z" fill="#303F8D"/>
<path d="M55.6855 20.2761C55.6855 18.941 56.6211 17.7973 59.14 17.7973H62.9767V17.1113C62.9767 15.4905 62.0226 14.7083 60.0951 14.7083C58.3581 14.7083 57.404 15.3564 57.404 16.6342C57.404 16.6915 57.404 16.8247 57.4234 16.9772H56.0113C55.9919 16.8441 55.9733 16.5769 55.9733 16.4049C55.9733 14.5363 57.5761 13.4111 60.1339 13.4111C62.9018 13.4111 64.5046 14.7841 64.5046 17.2435V22.9832H62.9777C62.9971 22.545 63.035 21.6676 63.0545 20.7523H63.035C62.7102 22.2011 61.5276 23.1358 59.1798 23.1358C57.0422 23.1358 55.6874 22.0485 55.6874 20.2752L55.6855 20.2761ZM62.9758 19.0372V18.904H59.2733C57.727 18.904 57.1162 19.3617 57.1162 20.277C57.1162 21.1923 57.9944 21.8405 59.4824 21.8405C61.6201 21.8405 62.9749 20.7532 62.9749 19.0372H62.9758Z" fill="#303F8D"/>
<path d="M66.1074 10.4365H67.7483V12.3624H66.1074V10.4365ZM66.1648 13.5644H67.691V22.9848H66.1648V13.5644Z" fill="#303F8D"/>
<path d="M69.4453 13.5647H70.9722L70.9343 16.2912H70.9537C71.3923 14.651 72.3659 13.4121 74.3888 13.4121C76.4117 13.4121 77.6332 14.823 77.6332 17.0928C77.6332 17.741 77.5758 18.4279 77.5379 18.7709H76.1442C76.1822 18.4852 76.221 18.0082 76.221 17.4174C76.221 15.6819 75.5723 14.786 74.026 14.786C72.0984 14.786 70.9722 16.4641 70.9722 18.8098V22.9861H69.4453V13.5656V13.5647Z" fill="#303F8D"/>
<path d="M87.4446 18.5795H80.0582C80.1535 20.5821 81.375 21.8405 83.2267 21.8405C84.811 21.8405 85.8983 21.0398 86.0325 19.7999H87.4446C87.3493 21.8405 85.6892 23.1367 83.2073 23.1367C80.3635 23.1367 78.5312 21.2682 78.5312 18.3502C78.5312 15.4323 80.3441 13.4111 83.1693 13.4111C85.9946 13.4111 87.4446 15.0698 87.4446 17.8731V18.5786V18.5795ZM86.0325 17.3591C86.0325 15.7004 85.0016 14.7083 83.2082 14.7083C81.5286 14.7083 80.4024 15.681 80.1165 17.4737H86.0334V17.3591H86.0325Z" fill="#303F8D"/>
<path d="M88.627 19.38V13.5635H90.1539V19.1128C90.1539 20.7336 91.2227 21.7635 93.017 21.7635C95.2121 21.7635 96.6242 20.2953 96.6242 17.8165V13.5644H98.1511V22.9849H96.6242C96.6622 22.3553 96.701 21.1736 96.701 20.2195H96.6816C96.2809 21.9928 94.9446 23.1374 92.5969 23.1374C90.2492 23.1374 88.627 21.6692 88.627 19.3809V19.38Z" fill="#303F8D"/>
<path d="M99.8125 13.5647H101.339L101.301 16.2912H101.321C101.76 14.651 102.733 13.4121 104.756 13.4121C106.779 13.4121 108 14.823 108 17.0928C108 17.741 107.943 18.4279 107.905 18.7709H106.511C106.549 18.4852 106.588 18.0082 106.588 17.4174C106.588 15.6819 105.94 14.786 104.393 14.786C102.466 14.786 101.339 16.4641 101.339 18.8098V22.9861H99.8125V13.5656V13.5647Z" fill="#303F8D"/>
<path d="M34.1523 26.0962H41.0873C44.4307 26.0962 46.1547 27.4646 46.1547 29.9692C46.1547 32.4739 44.4835 33.7896 41.1761 33.7896H35.3082V37.7865H34.1523V26.0962ZM41.0169 32.8474C43.6663 32.8474 44.9998 31.9238 44.9998 29.9868C44.9998 28.0498 43.7552 27.1262 40.9281 27.1262H35.3091V32.8465H41.0169V32.8474Z" fill="#303F8D"/>
<path d="M48.4473 32.5275V26.0962H49.6031V32.4036C49.6031 35.4954 51.5594 36.9692 55.0092 36.9692C58.4591 36.9692 60.433 35.4945 60.433 32.4036V26.0962H61.5351V32.5275C61.5351 36.2406 59.1522 37.9992 55.0092 37.9992C50.8662 37.9992 48.4473 36.2406 48.4473 32.5275Z" fill="#303F8D"/>
<path d="M64.3086 26.0962H71.4924C74.7998 26.0962 75.9556 27.4646 75.9556 29.1343C75.9556 30.3067 75.2977 31.3376 73.9817 31.6575V31.6751C75.7067 31.9238 76.596 33.0786 76.596 34.3397C76.596 36.383 75.3152 37.7865 72.2929 37.7865H64.3086V26.0962ZM72.2577 31.284C74.0539 31.284 74.9071 30.3603 74.9071 29.2767C74.9071 28.1395 74.0891 27.1271 71.4045 27.1271H65.4653V31.284H72.2587H72.2577ZM72.0088 36.7565C74.5342 36.7565 75.4938 35.7256 75.4938 34.2519C75.4938 33.1683 74.462 32.2261 72.3993 32.2261H65.4644V36.7565H72.0088Z" fill="#303F8D"/>
<path d="M78.9805 26.0962H80.1363V36.7565H88.6721V37.7865H78.9805V26.0962Z" fill="#303F8D"/>
<path d="M90.8047 26.0962H91.9776V37.7865H90.8047V26.0962Z" fill="#303F8D"/>
<path d="M94.4141 31.9586C94.4141 28.583 96.8506 25.8823 101.403 25.8823C106.204 25.8823 107.911 28.6366 107.911 30.4127V30.5376H106.809V30.4664C106.809 29.0629 105.369 26.9132 101.439 26.9132C97.5086 26.9132 95.5884 29.0092 95.5884 31.9586C95.5884 34.4994 97.2421 36.9689 101.51 36.9689C105.191 36.9689 106.898 35.1567 106.898 33.4333V33.3621H108V33.4685C108 35.5654 106.008 37.9989 101.509 37.9989C96.2991 37.9989 94.4141 34.9432 94.4141 31.9586Z" fill="#303F8D"/>
<path d="M28.1079 23.7549C28.1079 20.0261 26.6403 16.5062 23.9751 13.8425C21.31 11.1798 17.7861 9.71338 14.054 9.71338C10.3219 9.71338 6.79796 11.1798 4.13283 13.8435C1.47232 16.5025 0.00556686 20.015 1.44919e-05 23.7345C-0.0110902 31.4603 6.36118 37.8177 14.0947 37.7955C18.2062 37.7844 22.0762 36.0295 24.7312 32.9849C24.8367 32.8638 24.9422 32.7427 25.0477 32.6216C25.8241 31.7238 26.4709 30.7225 26.9753 29.6481L27.4037 28.7356H23.3718L22.9331 29.4198C20.9509 32.5152 17.551 34.3422 13.8689 34.2793C8.04262 34.1795 3.33884 29.2376 3.52392 23.4193C3.60905 20.7556 4.70102 18.25 6.62029 16.3324C8.62099 14.3335 11.2602 13.2323 14.0521 13.2323C16.844 13.2323 19.4833 14.3335 21.484 16.3315C23.0673 17.9134 24.0779 19.8587 24.4388 21.9982H17.4159L18.9382 20.4717L17.3521 18.8916L15.182 21.0672L15.1765 17.9957L12.937 17.9994L12.9426 21.0718L10.7651 18.9036L9.18456 20.4884L11.3629 22.6574L8.28785 22.663L8.29155 24.9004L11.3657 24.8949L9.19566 27.0704L10.7818 28.6505L12.9528 26.4741L12.9583 29.5464L15.1978 29.5427L15.1922 26.4704L17.3697 28.6385L18.9502 27.0538L17.4048 25.5153H28.107V23.7567L28.1079 23.7549Z" fill="#F4D93E"/>
<path d="M21.8695 0H16.8326L9.33594 7.57874H14.284L21.8695 0Z" fill="#F4D93E"/>
</g>
<defs>
<clipPath id="clip0_1251_2803">
<rect width="108" height="38" fill="white"/>
</clipPath>
</defs>
</svg>
