<svg width="120" height="120" viewBox="0 0 120 120" fill="none" xmlns="http://www.w3.org/2000/svg">
<g clip-path="url(#clip0_6_593)">
<path d="M120 71.5225L119.96 48.2752L88.0479 48.3268L110.573 25.7259L94.1075 9.31161L71.578 31.9165L71.5225 0L48.2752 0.0396576L48.3307 31.9561L25.7259 9.42662L9.31558 25.8885L31.9244 48.422L0 48.4775L0.0436234 71.7248L31.9561 71.6693L9.42662 94.2781L25.8925 110.692L48.4259 88.0796L48.4814 120L71.7287 119.96L71.6732 88.0399L94.282 110.569L110.692 94.1075L88.0796 71.5741L120 71.5225Z" fill="#F4D93E"/>
<path d="M94.2104 95.8168C96.4379 95.8168 98.2436 93.1961 98.2436 89.9633C98.2436 86.7306 96.4379 84.1099 94.2104 84.1099C91.983 84.1099 90.1772 86.7306 90.1772 89.9633C90.1772 93.1961 91.983 95.8168 94.2104 95.8168Z" fill="#F4D93E"/>
<path d="M94.4604 81.4013C93.9052 81.3894 93.12 81.4211 92.2158 81.6432C88.6506 82.5157 86.7113 85.4781 85.9895 86.5806C84.9109 88.2264 82.6583 91.6687 83.8441 95.2617C84.7522 98.0099 87.1515 99.279 90.2012 100.889C92.767 102.245 96.7685 104.359 99.9649 102.705C100.984 102.178 101.805 101.25 102.995 99.1243C104.756 95.9755 105.584 93.4771 106.334 90.3917C106.877 88.1669 106.695 86.9534 105.989 85.9223C105.295 84.9071 103.312 83.5865 102.229 83.0828C100.116 82.1033 96.9509 81.3775 96.3719 82.3491C96.0784 82.8409 96.7407 83.2851 97.1452 85.0022C97.6013 86.9375 96.9668 88.4524 96.8081 89.1901C96.59 90.2172 95.6343 91.9027 94.9442 92.8663C94.6428 93.2867 94.0599 93.8419 93.1636 93.8498C93.0526 93.8498 92.6957 93.8776 92.1325 93.3779C91.7082 93.0012 91.149 92.097 91.0618 90.5384C90.9586 88.623 91.7121 87.2151 92.3744 85.4861" fill="#F4D93E"/>
<path d="M70.2295 62.1475C70.2295 62.1713 70.2374 62.1951 70.2374 62.2189C70.2533 62.0285 70.2731 61.8461 70.281 61.6558C70.2731 61.8223 70.2295 61.981 70.2295 62.1515V62.1475Z" fill="white"/>
<path d="M77.9506 48.1531L77.9466 48.1536C72.8203 48.8158 69.2013 53.5083 69.8635 58.6346L70.1206 60.6248C70.7827 65.7511 75.4752 69.3701 80.6016 68.7079L80.6055 68.7074C85.7319 68.0453 89.3508 63.3527 88.6887 58.2264L88.4316 56.2362C87.7694 51.1099 83.0769 47.4909 77.9506 48.1531Z" fill="white"/>
<path d="M80.7072 69.492C75.1552 70.2098 70.0512 66.2757 69.3374 60.7237L69.0796 58.7368C68.3618 53.1848 72.2959 48.0808 77.8479 47.367C83.4 46.6492 88.5039 50.5832 89.2217 56.1353L89.4795 58.1221C90.1973 63.6742 86.2633 68.7781 80.7112 69.492H80.7072ZM78.0502 48.9374C73.3666 49.5442 70.0473 53.847 70.6501 58.5346L70.9079 60.5214C71.5146 65.205 75.8175 68.5243 80.505 67.9215C85.1886 67.3148 88.5079 63.0119 87.9051 58.3244L87.6473 56.3375C87.0406 51.654 82.7377 48.3346 78.0502 48.9374Z" fill="#303F8D"/>
<path d="M79.8585 55.6912H88.4761V60.0019C88.4761 62.3814 86.5447 64.3127 84.1653 64.3127C81.7858 64.3127 79.8545 62.3814 79.8545 60.0019V55.6912H79.8585Z" fill="#303F8D"/>
<path d="M64.0512 48.0649H64.0472C58.8782 48.0649 54.688 52.2552 54.688 57.4241V59.4308C54.688 64.5998 58.8782 68.79 64.0472 68.79H64.0512C69.2201 68.79 73.4104 64.5998 73.4104 59.4308V57.4241C73.4104 52.2552 69.2201 48.0649 64.0512 48.0649Z" fill="white"/>
<path d="M64.0508 69.5833C58.4511 69.5833 53.8984 65.0266 53.8984 59.4309V57.4282C53.8984 51.8286 58.4551 47.2759 64.0508 47.2759C69.6465 47.2759 74.2031 51.8325 74.2031 57.4282V59.4309C74.2031 65.0306 69.6465 69.5833 64.0508 69.5833ZM64.0508 48.8582C59.3276 48.8582 55.4847 52.701 55.4847 57.4243V59.427C55.4847 64.1502 59.3276 67.993 64.0508 67.993C68.774 67.993 72.6168 64.1502 72.6168 59.427V57.4243C72.6168 52.701 68.774 48.8582 64.0508 48.8582Z" fill="#303F8D"/>
<path d="M88.4763 54.8979H54.8506V56.4843H88.4763V54.8979Z" fill="#303F8D"/>
<path d="M64.7925 55.6912H73.4101V60.0019C73.4101 62.3814 71.4788 64.3127 69.0994 64.3127C66.7199 64.3127 64.7886 62.3814 64.7886 60.0019V55.6912H64.7925Z" fill="#303F8D"/>
<path d="M88.2937 55.6911C87.4807 51.3526 83.6735 48.0649 79.0971 48.0649C74.5206 48.0649 70.7095 51.3486 69.8965 55.6911H88.2937Z" fill="#F4D93E"/>
<path d="M68.937 56.4844L69.1115 55.5446C70.0078 50.7499 74.2075 47.272 79.0933 47.272C83.9791 47.272 88.171 50.7499 89.0712 55.5446L89.2457 56.4844H68.937ZM70.904 54.8981H87.2787C86.1881 51.3448 82.8846 48.8583 79.0933 48.8583C75.3021 48.8583 71.9946 51.3448 70.904 54.8981Z" fill="#303F8D"/>
<path d="M73.2478 55.6911C72.4348 51.3526 68.6276 48.0649 64.0512 48.0649C59.4747 48.0649 55.6636 51.3486 54.8506 55.6911H73.2478Z" fill="#F4D93E"/>
<path d="M53.8945 56.4844L54.069 55.5446C54.9653 50.7499 59.165 47.272 64.0508 47.272C68.9367 47.272 73.1285 50.7499 74.0287 55.5446L74.2032 56.4844H53.8945ZM55.8616 54.8981H72.2362C71.1456 51.3448 67.8421 48.8583 64.0508 48.8583C60.2596 48.8583 56.9521 51.3448 55.8616 54.8981Z" fill="#303F8D"/>
<path d="M100.833 87.3737L98.1644 87.691L96.8755 86.1959L99.9846 75.762L103.939 76.9358L100.833 87.3737Z" fill="#EE8100"/>
<path d="M97.3632 104.101C94.5753 104.101 91.7318 102.598 89.8283 101.591C86.7508 99.9651 84.0938 98.5612 83.0904 95.5115C81.7857 91.5576 84.177 87.9012 85.3231 86.1483C86.0965 84.9626 88.1547 81.8177 92.0253 80.8739C92.8184 80.6795 93.6394 80.5923 94.4761 80.6121C94.9124 80.624 95.2613 80.9849 95.2494 81.4251C95.2376 81.8613 94.8767 82.2302 94.4365 82.1984C93.7464 82.1826 93.0564 82.254 92.3981 82.4166C89.1382 83.2137 87.3298 85.9778 86.6477 87.0168C85.6364 88.5674 83.5267 91.7876 84.5934 95.0158C85.3985 97.4587 87.5678 98.6048 90.5659 100.191C93.0366 101.496 96.7683 103.471 99.592 102.003C100.353 101.607 101.071 100.925 102.297 98.7396C104.042 95.6225 104.839 93.1638 105.556 90.2093C106.08 88.0678 105.842 87.1279 105.326 86.3744C104.74 85.5178 102.868 84.2606 101.888 83.8046C99.8458 82.8568 97.7519 82.5355 97.1372 82.7338C97.1689 82.8092 97.2085 82.8924 97.2442 82.9718C97.4267 83.3604 97.7003 83.9473 97.9065 84.8277C98.3309 86.6163 97.9263 88.0717 97.6844 88.9402C97.6408 89.1028 97.6011 89.2456 97.5734 89.3646C97.3116 90.5979 96.2369 92.4142 95.5786 93.3343C94.9877 94.1631 94.1073 94.643 93.1595 94.6509C92.9612 94.6509 92.3703 94.6628 91.597 93.9807C91.2321 93.6595 90.3755 92.6879 90.2605 90.59C90.1653 88.8331 90.7047 87.4967 91.2797 86.0809C91.3947 85.7993 91.5097 85.5098 91.6247 85.2084C91.7794 84.8 92.2394 84.5938 92.6479 84.7484C93.0564 84.9031 93.2626 85.3631 93.1079 85.7716C92.989 86.0809 92.87 86.3783 92.751 86.6718C92.2236 87.9726 91.7715 89.0949 91.8468 90.4988C91.9142 91.7242 92.3227 92.4975 92.6479 92.787C92.7431 92.8703 92.9731 93.0607 93.1278 93.0607C93.7385 93.0567 94.1152 92.6482 94.2858 92.4103C94.9798 91.4387 95.8403 89.8682 96.0188 89.0275C96.0505 88.8807 96.0981 88.7102 96.1536 88.5119C96.3678 87.7426 96.689 86.5766 96.3599 85.1886C96.1893 84.4668 95.9752 84.0068 95.8007 83.638C95.5667 83.1383 95.301 82.5712 95.6738 81.9446C96.7326 80.168 100.996 81.6432 102.546 82.365C103.744 82.9202 105.83 84.3122 106.627 85.4781C107.52 86.7829 107.654 88.2621 107.087 90.5821C106.334 93.6674 105.501 96.2372 103.669 99.5129C102.431 101.73 101.519 102.785 100.314 103.411C99.3659 103.903 98.3586 104.101 97.3473 104.101H97.3632Z" fill="#303F8D"/>
<path d="M101.155 99.3107C100.032 99.3107 98.9141 99.1997 97.8156 98.9776C96.4395 98.7 95.111 98.2519 93.8737 97.6491C93.481 97.4587 93.3184 96.9828 93.5088 96.5902C93.6992 96.1976 94.1711 96.031 94.5677 96.2254C95.682 96.7687 96.8797 97.1732 98.1249 97.423C99.5923 97.7205 101.099 97.7958 102.594 97.657C103.027 97.6134 103.419 97.9386 103.459 98.3709C103.499 98.8071 103.177 99.1918 102.745 99.2354C102.214 99.283 101.682 99.3107 101.155 99.3107Z" fill="#303F8D"/>
<path d="M103.058 95.0475C101.892 95.0475 100.73 94.9285 99.5882 94.6906C98.212 94.4011 96.8875 93.945 95.6581 93.3303C95.2655 93.136 95.1069 92.6601 95.3012 92.2675C95.4955 91.8749 95.9714 91.7162 96.364 91.9105C97.4744 92.4658 98.6681 92.8782 99.9134 93.136C101.377 93.4413 102.884 93.5325 104.383 93.4056C104.823 93.362 105.204 93.6912 105.239 94.1274C105.275 94.5636 104.954 94.9483 104.518 94.984C104.03 95.0237 103.546 95.0475 103.058 95.0475Z" fill="#303F8D"/>
<path d="M97.3038 88.5674C96.9628 88.5674 96.6495 88.3453 96.5464 88.0043C96.4195 87.5839 96.6574 87.1437 97.0738 87.0168C98.0256 86.7273 99.0051 86.5806 99.9966 86.5806C100.837 86.5964 101.666 86.6837 102.467 86.8899C102.892 87.0009 103.145 87.4332 103.038 87.8575C102.927 88.2819 102.499 88.5357 102.071 88.4286C101.408 88.2581 100.718 88.1708 100.02 88.1708H100.001C99.1677 88.1708 98.3389 88.2977 97.5378 88.5396C97.4625 88.5634 97.3831 88.5753 97.3078 88.5753L97.3038 88.5674Z" fill="#303F8D"/>
<path d="M95.1308 103.641C94.9563 103.641 94.7818 103.586 94.6391 103.471C93.6119 102.654 92.9655 101.535 92.7752 100.238C92.6165 99.1717 92.7593 97.982 93.1955 96.705C93.3383 96.2886 93.7864 96.0665 94.2028 96.2093C94.6192 96.3521 94.8374 96.8002 94.6986 97.2166C94.3456 98.2517 94.2266 99.1915 94.3456 100.008C94.4765 100.913 94.9087 101.658 95.6265 102.229C95.9676 102.503 96.0271 103.003 95.7535 103.344C95.5948 103.542 95.3648 103.641 95.1308 103.641Z" fill="#303F8D"/>
<path d="M94.1946 97.8513C93.9765 97.8513 93.7624 97.7641 93.6037 97.5896C93.0406 96.963 92.7551 96.1897 92.7749 95.3529C92.7908 94.6787 93.0009 93.9688 93.4015 93.2431C93.6117 92.8584 94.0955 92.7157 94.4762 92.9298C94.8609 93.14 95.0037 93.6238 94.7895 94.0045C94.5159 94.5082 94.3691 94.9761 94.3572 95.3925C94.3453 95.8327 94.4841 96.2016 94.7776 96.5307C95.0711 96.8559 95.0433 97.3596 94.7181 97.6491C94.5674 97.7839 94.3771 97.8513 94.1867 97.8513H94.1946Z" fill="#303F8D"/>
<path d="M101.805 84.1099L99.0847 83.2533L97.6372 83.638L99.9849 75.762L103.939 76.9358L101.805 84.1099Z" fill="#EE8100"/>
<path d="M104.031 78.0715C110.126 78.0715 115.068 73.1302 115.068 67.0348C115.068 60.9394 110.126 55.998 104.031 55.998C97.9354 55.998 92.9941 60.9394 92.9941 67.0348C92.9941 73.1302 97.9354 78.0715 104.031 78.0715Z" fill="#CAD2FC"/>
<path d="M104.055 79.0668C103.087 79.0668 102.111 78.9479 101.148 78.7099C98.0306 77.9406 95.3973 76.0013 93.7356 73.2491C92.074 70.5008 91.5862 67.2687 92.3556 64.1476C93.1249 61.0306 95.0642 58.3973 97.8164 56.7356C100.565 55.074 103.797 54.5862 106.918 55.3556C110.035 56.1249 112.668 58.0642 114.33 60.8164C115.991 63.5647 116.479 66.7968 115.71 69.9178C114.941 73.0349 113.001 75.6682 110.249 77.3298C108.349 78.4759 106.22 79.0668 104.055 79.0668ZM104.011 56.9894C102.203 56.9894 100.426 57.4812 98.8396 58.4409C96.5434 59.8289 94.9254 62.026 94.2789 64.6315C92.9504 70.009 96.246 75.462 101.62 76.7905C106.997 78.119 112.45 74.8235 113.779 69.4499C114.421 66.8444 114.013 64.1476 112.625 61.8515C111.237 59.5553 109.04 57.9373 106.434 57.2908C105.629 57.0926 104.816 56.9934 104.007 56.9934L104.011 56.9894Z" fill="#303F8D"/>
<path d="M67.5331 75.8966C66.0459 75.8966 64.4359 75.623 62.8376 74.8576C61.6083 74.2667 60.4939 73.4379 59.5342 72.3869C59.2367 72.0657 59.2605 71.5621 59.5818 71.2646C59.907 70.9672 60.4066 70.991 60.7041 71.3122C61.529 72.2085 62.4768 72.9184 63.5237 73.422C67.6005 75.3771 71.8796 73.5687 73.0931 72.9699C73.4857 72.7756 73.9616 72.9382 74.1559 73.3308C74.3503 73.7234 74.1877 74.1993 73.7951 74.3936C72.8829 74.8457 70.444 75.8927 67.5331 75.8927V75.8966Z" fill="#303F8D"/>
<path d="M111.687 66.9872C111.255 66.9872 110.898 66.6382 110.894 66.202C110.886 65.4604 110.727 64.346 110.021 63.2356C109.585 62.5455 108.982 61.9467 108.288 61.5025C107.92 61.2686 107.809 60.7768 108.046 60.408C108.28 60.0392 108.772 59.9281 109.141 60.1661C110.033 60.7332 110.803 61.5025 111.362 62.3909C112.266 63.8186 112.468 65.2423 112.48 66.1901C112.484 66.6263 112.135 66.9872 111.695 66.9912H111.683L111.687 66.9872Z" fill="white"/>
<path d="M106.746 60.186C106.651 60.186 106.552 60.1702 106.457 60.1305L105.687 59.8291C105.279 59.6665 105.081 59.2065 105.239 58.802C105.398 58.3975 105.862 58.1912 106.266 58.3538L107.036 58.6552C107.444 58.8178 107.642 59.2779 107.484 59.6824C107.361 59.9957 107.063 60.186 106.746 60.186Z" fill="white"/>
</g>
<defs>
<clipPath id="clip0_6_593">
<rect width="120" height="120" fill="white"/>
</clipPath>
</defs>
</svg>
