<svg width="200" height="200" viewBox="0 0 200 200" fill="none" xmlns="http://www.w3.org/2000/svg">
<g clip-path="url(#clip0_784_2823)">
<path d="M199.934 80.4587L200 119.204L146.813 119.297L184.494 156.853L157.143 184.289L119.462 146.74L119.555 199.941L80.809 200.007L80.7165 146.806L43.1607 184.487L15.7176 157.13L53.2668 119.455L0.0727056 119.541L0 80.7958L33.6825 80.7363L45.4344 80.7165L53.2007 80.7033L15.5193 43.1475L42.8699 15.711L80.5512 53.2602L80.4587 0.066096L119.204 0L119.297 53.1941L156.846 15.5194L184.289 42.8765L146.74 80.5513L199.934 80.4587Z" fill="#E8F787"/>
<path d="M117.05 103.255C117.05 103.295 117.063 103.334 117.063 103.374C117.089 103.057 117.123 102.753 117.136 102.436C117.123 102.713 117.05 102.978 117.05 103.262V103.255Z" fill="white"/>
<path d="M132.133 79.7778H132.126C123.511 79.7778 116.527 86.7616 116.527 95.3765V98.721C116.527 107.336 123.511 114.32 132.126 114.32H132.133C140.748 114.32 147.731 107.336 147.731 98.721V95.3765C147.731 86.7616 140.748 79.7778 132.133 79.7778Z" fill="white"/>
<path d="M132.126 115.642C122.793 115.642 115.205 108.047 115.205 98.7211V95.3832C115.205 86.0505 122.8 78.4626 132.126 78.4626C141.452 78.4626 149.046 86.0571 149.046 95.3832V98.7211C149.046 108.054 141.452 115.642 132.126 115.642ZM132.126 81.0999C124.254 81.0999 117.849 87.5046 117.849 95.3766V98.7145C117.849 106.587 124.254 112.991 132.126 112.991C139.998 112.991 146.402 106.587 146.402 98.7145V95.3766C146.402 87.5046 139.998 81.0999 132.126 81.0999Z" fill="#303F8D"/>
<path d="M130.533 92.8186H144.896V100.003C144.896 103.969 141.677 107.188 137.711 107.188C133.745 107.188 130.526 103.969 130.526 100.003V92.8186H130.533Z" fill="#303F8D"/>
<path d="M106.752 79.7778H106.745C98.1302 79.7778 91.1465 86.7616 91.1465 95.3765V98.721C91.1465 107.336 98.1302 114.32 106.745 114.32H106.752C115.367 114.32 122.35 107.336 122.35 98.721V95.3765C122.35 86.7616 115.367 79.7778 106.752 79.7778Z" fill="white"/>
<path d="M106.752 115.642C97.4189 115.642 89.8311 108.047 89.8311 98.7211V95.3832C89.8311 86.0505 97.4255 78.4626 106.752 78.4626C116.078 78.4626 123.672 86.0571 123.672 95.3832V98.7211C123.672 108.054 116.078 115.642 106.752 115.642ZM106.752 81.0999C98.8796 81.0999 92.4749 87.5046 92.4749 95.3766V98.7145C92.4749 106.587 98.8796 112.991 106.752 112.991C114.624 112.991 121.028 106.587 121.028 98.7145V95.3766C121.028 87.5046 114.624 81.0999 106.752 81.0999Z" fill="#303F8D"/>
<path d="M147.46 91.1663H91.417V93.8101H147.46V91.1663Z" fill="#303F8D"/>
<path d="M105.073 92.4883H119.436V99.6729C119.436 103.639 116.217 106.858 112.251 106.858C108.285 106.858 105.066 103.639 105.066 99.6729V92.4883H105.073Z" fill="#303F8D"/>
<path d="M147.46 92.4881C146.105 85.2572 139.76 79.7778 132.132 79.7778C124.505 79.7778 118.153 85.2506 116.798 92.4881H147.46Z" fill="#E8F787"/>
<path d="M115.205 93.8168L115.496 92.2503C116.99 84.2593 123.989 78.4626 132.132 78.4626C140.275 78.4626 147.262 84.2593 148.762 92.2503L149.053 93.8168H115.205ZM118.483 91.1663H145.774C143.957 85.2441 138.451 81.0999 132.132 81.0999C125.813 81.0999 120.301 85.2441 118.483 91.1663Z" fill="#303F8D"/>
<path d="M122.079 92.4881C120.724 85.2572 114.379 79.7778 106.751 79.7778C99.1238 79.7778 92.772 85.2506 91.417 92.4881H122.079Z" fill="#E8F787"/>
<path d="M89.8242 93.8168L90.115 92.2503C91.6088 84.2593 98.6084 78.4626 106.751 78.4626C114.894 78.4626 121.881 84.2593 123.381 92.2503L123.672 93.8168H89.8242ZM93.1026 91.1663H120.394C118.576 85.2441 113.07 81.0999 106.751 81.0999C100.433 81.0999 94.9202 85.2441 93.1026 91.1663Z" fill="#303F8D"/>
<path d="M102.383 118.999C102.806 117.849 105.245 119.092 105.371 119.065C106.706 118.781 107.836 119.449 108.583 119.819C112.337 121.683 116.614 121.194 118.002 121.042C120.652 120.744 121.492 119.918 123.66 120.42C124.413 120.599 125.808 120.943 126.627 122.099C127.698 123.613 127.156 125.609 126.7 127.215C126.217 128.9 125.127 132.714 121.234 135.114C120.632 135.484 115.728 138.385 110.506 136.019C105.979 133.963 104.677 129.079 104.009 126.666C103.361 124.313 102.04 119.938 102.383 119.006V118.999Z" fill="#303F8D"/>
<path d="M104.703 131.564C105.219 130.837 106.567 129.185 108.794 128.808C111.372 128.378 113.487 129.925 115.49 131.399C117.235 132.681 119.039 134.003 118.742 135.081C118.259 136.845 112.165 137.989 108.081 135.471C106.091 134.248 105.126 132.496 104.703 131.564Z" fill="white"/>
<path d="M114.796 138.26C113.289 138.26 111.643 137.982 109.964 137.215C104.921 134.928 103.46 129.627 102.76 127.083L102.74 127.01C102.601 126.495 100.645 120.328 101.312 118.51C101.96 116.752 104.313 117.505 105.093 117.776C106.719 118.325 109.938 119.958 117.856 119.733C118.755 119.706 119.409 119.468 120.044 119.31C121.194 119.019 122.285 118.748 123.963 119.138C124.75 119.323 126.581 119.746 127.711 121.346C129.172 123.408 128.451 125.919 127.975 127.585C127.466 129.383 126.264 133.58 121.934 136.244C121.227 136.68 118.398 138.266 114.802 138.266L114.796 138.26ZM104.525 121.042C104.372 121.531 104.558 123.679 105.285 126.309L105.304 126.382C105.946 128.709 107.142 133.031 111.055 134.809C115.516 136.839 119.74 134.479 120.546 133.983C124.003 131.855 124.968 128.477 125.431 126.851C125.893 125.232 126.224 123.811 125.55 122.859C125.001 122.086 123.937 121.835 123.362 121.703C122.311 121.458 121.736 121.603 120.685 121.861C120.031 122.026 119.224 122.225 118.154 122.35C116.66 122.522 112.099 123.038 107.995 121.002L107.783 120.896C107.135 120.566 106.408 120.196 105.648 120.361C105.258 120.447 104.65 120.731 104.531 121.042H104.525Z" fill="#303F8D"/>
</g>
<defs>
<clipPath id="clip0_784_2823">
<rect width="200" height="200" fill="white"/>
</clipPath>
</defs>
</svg>
