<svg width="325" height="261" viewBox="0 0 325 261" fill="none" xmlns="http://www.w3.org/2000/svg">
<g clip-path="url(#clip0_1486_14025)">
<path d="M261.075 155.561L260.989 104.999L191.559 105.111L240.566 55.9538L204.743 20.2528L155.727 69.4183L155.606 0L105.029 0.0862553L105.15 69.5045L55.9699 20.5029L20.2672 56.3075L69.4555 105.318L0 105.439L0.0949081 156.001L69.5245 155.881L20.5088 205.055L56.3323 240.756L105.357 191.573L105.477 261L156.055 260.914L155.934 191.487L205.122 240.488L240.825 204.684L191.628 155.674L261.075 155.561Z" fill="#CAD2FC"/>
<path d="M152.793 135.171C152.793 135.223 152.81 135.275 152.81 135.326C152.845 134.912 152.889 134.516 152.906 134.102C152.889 134.464 152.793 134.809 152.793 135.18V135.171Z" fill="white"/>
<path d="M169.592 104.735L169.583 104.736C158.43 106.176 150.557 116.382 151.997 127.532L152.556 131.861C153.997 143.011 164.206 150.882 175.359 149.442L175.368 149.441C186.521 148 194.394 137.794 192.954 126.644L192.394 122.316C190.954 111.166 180.745 103.295 169.592 104.735Z" fill="white"/>
<path d="M175.589 151.146C163.509 152.707 152.405 144.15 150.852 132.074L150.291 127.753C148.73 115.677 157.289 104.576 169.368 103.024C181.447 101.462 192.551 110.019 194.113 122.095L194.674 126.416C196.236 138.492 187.677 149.593 175.597 151.146H175.589ZM169.808 106.439C159.618 107.759 152.397 117.118 153.708 127.313L154.269 131.635C155.589 141.821 164.95 149.041 175.149 147.73C185.338 146.41 192.56 137.051 191.249 126.856L190.688 122.535C189.368 112.348 180.006 105.128 169.808 106.439Z" fill="#303F8D"/>
<path d="M173.743 121.129H192.492V130.505C192.492 135.68 188.29 139.881 183.113 139.881C177.936 139.881 173.734 135.68 173.734 130.505V121.129H173.743Z" fill="#303F8D"/>
<path d="M139.351 104.543H139.343C128.097 104.543 118.98 113.657 118.98 124.899V129.264C118.98 140.506 128.097 149.62 139.343 149.62H139.351C150.597 149.62 159.713 140.506 159.713 129.264V124.899C159.713 113.657 150.597 104.543 139.351 104.543Z" fill="white"/>
<path d="M139.351 151.343C127.169 151.343 117.264 141.432 117.264 129.261V124.906C117.264 112.726 127.177 102.824 139.351 102.824C151.525 102.824 161.439 112.735 161.439 124.906V129.261C161.439 141.441 151.525 151.343 139.351 151.343ZM139.351 106.266C129.075 106.266 120.715 114.624 120.715 124.897V129.253C120.715 139.526 129.075 147.884 139.351 147.884C149.627 147.884 157.988 139.526 157.988 129.253V124.897C157.988 114.624 149.627 106.266 139.351 106.266Z" fill="#303F8D"/>
<path d="M192.491 119.402H119.334V122.853H192.491V119.402Z" fill="#303F8D"/>
<path d="M140.964 121.129H159.712V130.505C159.712 135.68 155.511 139.881 150.334 139.881C145.157 139.881 140.955 135.68 140.955 130.505V121.129H140.964Z" fill="#303F8D"/>
<path d="M192.094 121.13C190.325 111.694 182.042 104.543 172.085 104.543C162.129 104.543 153.837 111.685 152.068 121.13H192.094Z" fill="#CAD2FC"/>
<path d="M149.98 122.854L150.36 120.809C152.31 110.381 161.447 102.816 172.077 102.816C182.707 102.816 191.826 110.381 193.785 120.809L194.165 122.854H149.98ZM154.26 119.403H189.885C187.512 111.675 180.325 106.267 172.077 106.267C163.828 106.267 156.633 111.675 154.26 119.403Z" fill="#303F8D"/>
<path d="M159.359 121.13C157.591 111.694 149.308 104.543 139.351 104.543C129.394 104.543 121.103 111.685 119.334 121.13H159.359Z" fill="#CAD2FC"/>
<path d="M117.254 122.854L117.634 120.809C119.583 110.381 128.721 102.816 139.35 102.816C149.98 102.816 159.1 110.381 161.058 120.809L161.438 122.854H117.254ZM121.533 119.403H157.158C154.786 111.675 147.599 106.267 139.35 106.267C131.102 106.267 123.906 111.675 121.533 119.403Z" fill="#303F8D"/>
<path d="M147.444 170.646C144.407 170.646 141.396 170.05 138.583 168.826C130.033 165.117 127.082 157.241 126.383 154.921C126.107 154.007 126.624 153.049 127.539 152.773C128.445 152.497 129.411 153.015 129.687 153.929C130.283 155.896 132.776 162.546 139.963 165.669C146.857 168.662 155.218 167.204 161.266 161.942C161.982 161.313 163.078 161.39 163.699 162.115C164.329 162.831 164.251 163.926 163.526 164.547C158.928 168.55 153.156 170.654 147.452 170.654L147.444 170.646Z" fill="#303F8D"/>
<path d="M216.252 165.171C211.265 158.581 208.444 150.249 208.892 141.244C209.807 122.613 224.932 107.466 243.568 106.517C265.285 105.413 283.136 123.225 282.066 144.936C281.161 163.446 266.217 178.541 247.718 179.645C240.704 180.067 234.095 178.497 228.374 175.479L212.801 184.742C211.463 185.536 209.85 184.242 210.35 182.758L216.261 165.162L216.252 165.171Z" fill="#FAF79E"/>
<path d="M211.939 186.709C211.18 186.709 210.429 186.45 209.799 185.95C208.677 185.044 208.255 183.578 208.712 182.215L214.337 165.473C209.281 158.452 206.745 149.861 207.176 141.166C208.134 121.759 224.078 105.784 243.483 104.801C254.337 104.24 264.923 108.32 272.585 115.954C280.238 123.596 284.328 134.188 283.802 145.022C282.861 164.257 267.063 180.223 247.831 181.37C241.11 181.767 234.423 180.421 228.444 177.445L213.69 186.226C213.147 186.554 212.543 186.709 211.947 186.709H211.939ZM245.433 108.2C244.846 108.2 244.251 108.217 243.655 108.243C225.994 109.14 211.481 123.674 210.619 141.33C210.213 149.524 212.707 157.624 217.633 164.127C217.978 164.585 218.073 165.18 217.892 165.715L212.016 183.199L227.486 173.995C228.004 173.685 228.643 173.667 229.178 173.952C234.82 176.936 241.188 178.308 247.616 177.928C265.113 176.885 279.488 162.351 280.342 144.849C280.825 134.99 277.106 125.347 270.135 118.395C263.586 111.857 254.665 108.2 245.424 108.2H245.433Z" fill="#303F8D"/>
<path d="M315.872 151.362C320.859 144.773 323.68 136.44 323.232 127.435C322.317 108.804 307.192 93.6577 288.556 92.7089C266.839 91.6048 248.988 109.417 250.057 131.127C250.963 149.637 265.907 164.732 284.406 165.836C291.42 166.259 298.029 164.689 303.75 161.67L319.323 170.934C320.661 171.727 322.274 170.433 321.774 168.95L315.863 151.354L315.872 151.362Z" fill="#E8F787"/>
<path d="M320.187 172.908C319.591 172.908 318.987 172.745 318.444 172.425L303.69 163.645C297.711 166.612 291.024 167.966 284.303 167.569C265.079 166.422 249.281 150.456 248.332 131.221C247.806 120.388 251.887 109.795 259.549 102.153C267.21 94.5109 277.832 90.4397 288.651 91.0004C308.056 91.9837 324.009 107.958 324.958 127.366C325.389 136.06 322.844 144.651 317.788 151.672L323.413 168.415C323.871 169.777 323.448 171.244 322.326 172.149C321.696 172.65 320.946 172.908 320.195 172.908H320.187ZM303.75 159.944C304.052 159.944 304.363 160.022 304.63 160.186L320.1 169.389L314.233 151.914C314.052 151.37 314.147 150.775 314.492 150.327C319.419 143.823 321.912 135.724 321.507 127.53C320.635 109.873 306.123 95.339 288.47 94.4419C278.617 93.9589 268.953 97.642 261.982 104.594C255.01 111.546 251.292 121.19 251.775 131.049C252.629 148.55 267.012 163.075 284.501 164.128C290.92 164.507 297.296 163.136 302.939 160.151C303.189 160.013 303.465 159.953 303.75 159.953V159.944Z" fill="#303F8D"/>
<path d="M249.255 129.954H232.456C231.507 129.954 230.73 129.178 230.73 128.229C230.73 127.28 231.507 126.504 232.456 126.504H249.255C250.204 126.504 250.98 127.28 250.98 128.229C250.98 129.178 250.204 129.954 249.255 129.954Z" fill="#303F8D"/>
<path d="M251.713 143.778H225.743C224.794 143.778 224.018 143.002 224.018 142.053C224.018 141.104 224.794 140.328 225.743 140.328H251.713C252.663 140.328 253.439 141.104 253.439 142.053C253.439 143.002 252.663 143.778 251.713 143.778Z" fill="#303F8D"/>
<path d="M261.076 157.478H225.735C224.786 157.478 224.01 156.701 224.01 155.752C224.01 154.804 224.786 154.027 225.735 154.027H261.076C262.025 154.027 262.801 154.804 262.801 155.752C262.801 156.701 262.025 157.478 261.076 157.478Z" fill="#303F8D"/>
<path d="M218.298 179.038C215.166 177.779 211.741 176.908 208.462 176.985C206.124 177.037 200.749 177.166 197.539 180.85C196.167 182.428 195.408 184.403 195.003 189.121C194.166 198.894 193.484 206.95 199.084 213.385C200.136 214.593 203.734 218.603 209.679 219.561C217.582 220.838 223.51 215.723 224.683 214.705C231.309 208.986 231.792 201.016 231.853 199.265C232.12 191.407 228.212 183.791 221.085 180.28C220.196 179.84 219.265 179.418 218.307 179.038H218.298Z" fill="#CAD2FC"/>
<path d="M212.189 221.496C211.258 221.496 210.326 221.427 209.403 221.272C206.348 220.78 201.862 219.21 197.781 214.527C191.698 207.54 192.431 198.94 193.277 188.978C193.682 184.234 194.485 181.724 196.236 179.714C199.946 175.462 205.882 175.324 208.419 175.263C211.611 175.16 215.158 175.919 218.945 177.437C219.903 177.825 220.887 178.256 221.853 178.739C229.282 182.405 233.88 190.487 233.587 199.328C233.483 202.425 232.517 210.24 225.822 216.019C221.672 219.598 216.918 221.496 212.198 221.496H212.189ZM208.868 178.713C208.747 178.713 208.617 178.713 208.497 178.713C206.417 178.765 201.543 178.877 198.833 181.983C197.781 183.19 197.099 184.769 196.711 189.271C195.891 198.828 195.253 206.376 200.378 212.258C203.777 216.166 207.453 217.468 209.946 217.865C216.133 218.865 221.128 215.501 223.553 213.405C229.221 208.515 230.041 201.847 230.127 199.208C230.377 191.712 226.529 184.889 220.317 181.827C219.428 181.387 218.531 180.991 217.66 180.637C214.459 179.352 211.508 178.705 208.868 178.705V178.713Z" fill="#303F8D"/>
<path d="M192.939 202.296C190.86 202.296 188.746 201.399 186.805 199.665C182.818 196.111 182.715 190.28 184.648 186.589C186.356 183.311 188.858 182.043 190.644 181.551C194.371 180.534 196.235 181.664 196.848 182.034C197.667 182.526 197.943 183.596 197.451 184.406C196.96 185.226 195.924 185.502 195.105 185.01C195.105 185.01 195.07 184.984 195.062 184.984C194.725 184.786 193.836 184.251 191.541 184.881C190.411 185.191 188.832 186.011 187.693 188.184C186.364 190.72 186.408 194.697 189.091 197.086C190.247 198.121 192.024 199.234 193.888 198.716L194 198.682C194.923 198.44 195.864 199.001 196.097 199.924C196.33 200.847 195.778 201.787 194.854 202.02C194.225 202.201 193.578 202.287 192.93 202.287L192.939 202.296Z" fill="#303F8D"/>
<path d="M194.924 195.249C194.251 195.249 193.613 194.852 193.337 194.196C192.966 193.316 193.371 192.307 194.251 191.936C197.858 190.401 201.706 189.323 205.675 188.736C210.342 188.046 215.079 188.046 219.764 188.736C220.705 188.874 221.36 189.754 221.222 190.694C221.084 191.634 220.204 192.29 219.264 192.152C214.915 191.514 210.515 191.514 206.184 192.152C202.508 192.695 198.945 193.687 195.614 195.111C195.39 195.205 195.166 195.249 194.941 195.249H194.924Z" fill="#303F8D"/>
<path d="M195.848 208.029C195.175 208.029 194.537 207.632 194.26 206.977C193.889 206.097 194.295 205.088 195.175 204.717C198.79 203.181 202.63 202.103 206.598 201.525C211.266 200.835 216.003 200.835 220.688 201.525C221.629 201.663 222.284 202.543 222.146 203.483C222.008 204.424 221.128 205.079 220.188 204.941C215.839 204.303 211.439 204.303 207.108 204.941C203.432 205.484 199.877 206.476 196.53 207.9C196.314 207.994 196.081 208.038 195.857 208.038L195.848 208.029Z" fill="#303F8D"/>
<path d="M281.464 134.232C281.464 133.154 281.662 132.265 282.068 131.549C282.473 130.833 283.146 130.066 284.078 129.229C284.777 128.643 285.312 128.194 285.691 127.901C286.494 127.28 287.063 126.771 287.382 126.365C287.702 125.96 287.866 125.451 287.866 124.839C287.866 124.011 287.521 123.398 286.839 123.027C286.157 122.648 285.044 122.467 283.517 122.467C282.361 122.467 281.248 122.605 280.169 122.872C279.091 123.14 278.185 123.519 277.426 124.002V117.714C279.686 116.584 282.439 116.023 285.691 116.023C288.944 116.023 291.308 116.705 293.025 118.059C294.742 119.413 295.605 121.302 295.605 123.717C295.605 125.141 295.338 126.322 294.803 127.262C294.268 128.203 293.362 129.195 292.102 130.247L291.213 130.971C290.299 131.67 289.643 132.265 289.238 132.748C288.832 133.231 288.634 133.809 288.634 134.482V134.965H281.464V134.241V134.232ZM281.101 137.009H289.005V142.366H281.101V137.009Z" fill="#303F8D"/>
</g>
<defs>
<clipPath id="clip0_1486_14025">
<rect width="325" height="261" fill="white"/>
</clipPath>
</defs>
</svg>
