<svg width="200" height="200" viewBox="0 0 200 200" fill="none" xmlns="http://www.w3.org/2000/svg">
<g clip-path="url(#clip0_784_3078)">
<path d="M200 119.204L199.934 80.4587L146.746 80.5446L184.289 42.8765L156.846 15.5193L119.297 53.1941L119.204 0L80.4587 0.066096L80.5512 53.2602L42.8765 15.711L15.526 43.1475L53.2073 80.7033L0 80.7958L0.0727056 119.541L53.2602 119.449L15.711 157.13L43.1541 184.487L80.7099 146.799L80.8024 200L119.548 199.934L119.455 146.733L157.137 184.282L184.487 156.846L146.799 119.29L200 119.204Z" fill="#EE8100"/>
<path d="M117.05 103.579C117.05 103.619 117.063 103.658 117.063 103.698C117.089 103.381 117.123 103.077 117.136 102.759C117.123 103.037 117.05 103.301 117.05 103.585V103.579Z" fill="white"/>
<path d="M129.918 80.2553L129.912 80.2562C121.368 81.3598 115.336 89.1806 116.44 97.7245L116.868 101.041C117.972 109.585 125.793 115.617 134.336 114.513L134.343 114.513C142.887 113.409 148.919 105.588 147.815 97.0441L147.386 93.7272C146.283 85.1833 138.462 79.1517 129.918 80.2553Z" fill="white"/>
<path d="M134.512 115.82C125.259 117.016 116.752 110.46 115.563 101.206L115.133 97.8948C113.937 88.6414 120.493 80.1348 129.747 78.9451C139 77.7487 147.507 84.3055 148.703 93.5589L149.133 96.8703C150.329 106.124 143.772 114.63 134.519 115.82H134.512ZM130.084 81.5625C122.278 82.5737 116.746 89.7452 117.75 97.5577L118.18 100.869C119.191 108.675 126.363 114.207 134.175 113.203C141.981 112.191 147.514 105.02 146.509 97.2074L146.079 93.896C145.068 86.09 137.897 80.5578 130.084 81.5625Z" fill="#303F8D"/>
<path d="M133.097 92.8188H147.46V100.003C147.46 103.969 144.241 107.188 140.275 107.188C136.31 107.188 133.091 103.969 133.091 100.003V92.8188H133.097Z" fill="#303F8D"/>
<path d="M106.752 80.1084H106.745C98.1302 80.1084 91.1465 87.0922 91.1465 95.7071V99.0515C91.1465 107.666 98.1302 114.65 106.745 114.65H106.752C115.367 114.65 122.35 107.666 122.35 99.0515V95.7071C122.35 87.0922 115.367 80.1084 106.752 80.1084Z" fill="white"/>
<path d="M106.752 115.972C97.4189 115.972 89.8311 108.378 89.8311 99.0514V95.7136C89.8311 86.3808 97.4255 78.793 106.752 78.793C116.078 78.793 123.672 86.3874 123.672 95.7136V99.0514C123.672 108.384 116.078 115.972 106.752 115.972ZM106.752 81.4302C98.8796 81.4302 92.4749 87.8349 92.4749 95.7069V99.0448C92.4749 106.917 98.8796 113.322 106.752 113.322C114.624 113.322 121.028 106.917 121.028 99.0448V95.7069C121.028 87.8349 114.624 81.4302 106.752 81.4302Z" fill="#303F8D"/>
<path d="M147.46 91.4966H91.417V94.1404H147.46V91.4966Z" fill="#303F8D"/>
<path d="M107.988 92.8188H122.351V100.003C122.351 103.969 119.132 107.188 115.166 107.188C111.2 107.188 107.981 103.969 107.981 100.003V92.8188H107.988Z" fill="#303F8D"/>
<path d="M147.156 92.8187C145.801 85.5878 139.456 80.1084 131.828 80.1084C124.201 80.1084 117.849 85.5811 116.494 92.8187H147.156Z" fill="#EE8100"/>
<path d="M114.895 94.1407L115.185 92.5743C116.679 84.5832 123.679 78.7866 131.822 78.7866C139.965 78.7866 146.951 84.5832 148.451 92.5743L148.742 94.1407H114.895ZM118.173 91.4969H145.464C143.646 85.5747 138.141 81.4305 131.822 81.4305C125.503 81.4305 119.991 85.5747 118.173 91.4969Z" fill="#303F8D"/>
<path d="M122.079 92.8187C120.724 85.5878 114.379 80.1084 106.751 80.1084C99.1238 80.1084 92.772 85.5811 91.417 92.8187H122.079Z" fill="#EE8100"/>
<path d="M89.8242 94.1407L90.115 92.5743C91.6088 84.5832 98.6084 78.7866 106.751 78.7866C114.894 78.7866 121.881 84.5832 123.381 92.5743L123.672 94.1407H89.8242ZM93.1026 91.4969H120.394C118.576 85.5747 113.07 81.4305 106.751 81.4305C100.433 81.4305 94.9202 85.5747 93.1026 91.4969Z" fill="#303F8D"/>
<path d="M113.553 117.188C111.239 116.983 108.893 117.235 106.666 117.975C99.8907 120.229 97.1015 126.039 96.4141 127.764C96.1431 128.444 96.4736 129.211 97.1478 129.482C97.8219 129.753 98.5953 129.423 98.8663 128.748C99.4545 127.288 101.808 122.377 107.498 120.48C112.958 118.662 119.244 120.341 123.5 124.77C124.009 125.298 124.842 125.312 125.371 124.803C125.9 124.294 125.913 123.461 125.404 122.932C122.165 119.568 117.902 117.572 113.553 117.182V117.188Z" fill="#303F8D"/>
</g>
<defs>
<clipPath id="clip0_784_3078">
<rect width="200" height="200" fill="white"/>
</clipPath>
</defs>
</svg>
