<svg width="324" height="277" viewBox="0 0 324 277" fill="none" xmlns="http://www.w3.org/2000/svg">
<g clip-path="url(#clip0_510_4372)">
<path d="M47.3736 165.098L47.465 111.435L121.03 111.554L69.104 59.384L107.061 21.4943L158.997 73.6738L159.125 0L212.715 0.091543L212.587 73.7654L264.696 21.7598L302.526 59.7593L250.407 111.774L324 111.902L323.899 165.565L250.334 165.437L302.27 217.625L264.312 255.515L212.368 203.317L212.24 277L158.649 276.908L158.777 203.225L106.659 255.231L68.8298 217.232L120.957 165.217L47.3736 165.098Z" fill="#CAD2FC"/>
<path d="M116.761 171.24L107.244 239.183C106.86 241.939 104.502 243.989 101.723 243.989H98.8613C95.7804 243.989 93.2847 241.49 93.2847 238.405V171.24" fill="#EE8100"/>
<path d="M162.105 143.457C162.105 143.512 162.087 143.567 162.087 143.622C162.05 143.182 162.004 142.761 161.986 142.322C162.004 142.706 162.105 143.072 162.105 143.466V143.457Z" fill="white"/>
<path d="M141.243 110.95H141.252C153.168 110.95 162.827 120.623 162.827 132.554V137.186C162.827 149.118 153.168 158.791 141.252 158.791H141.243C129.327 158.791 119.668 149.118 119.668 137.186V132.554C119.668 120.623 129.327 110.95 141.243 110.95Z" fill="white"/>
<path d="M141.252 160.621C154.161 160.621 164.656 150.103 164.656 137.186V132.563C164.656 119.638 154.152 109.128 141.252 109.128C128.353 109.128 117.849 119.647 117.849 132.563V137.186C117.849 150.112 128.353 160.621 141.252 160.621ZM141.252 112.781C152.14 112.781 160.999 121.652 160.999 132.554V137.177C160.999 148.08 152.14 156.95 141.252 156.95C130.364 156.95 121.506 148.08 121.506 137.177V132.554C121.506 121.652 130.364 112.781 141.252 112.781Z" fill="#303F8D"/>
<path d="M139.908 128.554H120.043V138.505C120.043 143.997 124.495 148.455 129.98 148.455C135.465 148.455 139.917 143.997 139.917 138.505V128.554H139.908Z" fill="#303F8D"/>
<path d="M176.348 110.95H176.358C188.273 110.95 197.933 120.623 197.933 132.554V137.186C197.933 149.118 188.273 158.791 176.358 158.791H176.348C164.433 158.791 154.773 149.118 154.773 137.186V132.554C154.773 120.623 164.433 110.95 176.348 110.95Z" fill="white"/>
<path d="M176.348 160.621C189.257 160.621 199.751 150.103 199.751 137.186V132.563C199.751 119.638 189.247 109.128 176.348 109.128C163.449 109.128 152.945 119.647 152.945 132.563V137.186C152.945 150.112 163.449 160.621 176.348 160.621ZM176.348 112.781C187.236 112.781 196.095 121.652 196.095 132.554V137.177C196.095 148.08 187.236 156.95 176.348 156.95C165.46 156.95 156.601 148.08 156.601 137.177V132.554C156.601 121.652 165.46 112.781 176.348 112.781Z" fill="#303F8D"/>
<path d="M120.043 126.723H197.558V130.385H120.043V126.723Z" fill="#303F8D"/>
<path d="M174.639 128.554H154.773V138.505C154.773 143.997 159.225 148.455 164.711 148.455C170.196 148.455 174.648 143.997 174.648 138.505V128.554H174.639Z" fill="#303F8D"/>
<path d="M120.043 128.554C121.917 118.539 130.693 110.95 141.243 110.95C151.793 110.95 160.579 118.53 162.453 128.554H120.043Z" fill="#CAD2FC"/>
<path d="M164.656 130.385L164.254 128.215C162.187 117.148 152.506 109.119 141.243 109.119C129.98 109.119 120.317 117.148 118.242 128.215L117.84 130.385H164.656ZM160.121 126.723H122.374C124.888 118.521 132.504 112.781 141.243 112.781C149.983 112.781 157.607 118.521 160.121 126.723Z" fill="#303F8D"/>
<path d="M155.148 128.554C157.022 118.539 165.798 110.95 176.348 110.95C186.898 110.95 195.684 118.53 197.558 128.554H155.148Z" fill="#CAD2FC"/>
<path d="M199.761 130.385L199.358 128.215C197.292 117.148 187.611 109.119 176.348 109.119C165.085 109.119 155.422 117.148 153.347 128.215L152.945 130.385H199.761ZM195.226 126.723H157.479C159.993 118.521 167.608 112.781 176.348 112.781C185.088 112.781 192.712 118.521 195.226 126.723Z" fill="#303F8D"/>
<path d="M148.648 163.194C156.803 163.093 165.131 164.018 173.304 164.32C174.063 164.393 174.95 164.576 175.361 165.098C176.257 167.066 175.407 169.684 175.334 171.799C174.758 176.504 174.036 181.164 171.11 185.448C168.441 188.972 166 192.094 159.929 193.687C154.563 194.849 147.25 193.394 145.238 188.487C143.721 183.452 144.854 176.715 145.494 171.423C145.796 169.373 146.116 167.514 146.372 166.086C146.555 164.841 146.856 163.725 148.365 163.267L148.648 163.194Z" fill="#303F8D"/>
<path d="M174.593 180.019C173.387 179.305 170.379 177.749 166.905 178.399C162.892 179.15 160.798 182.363 158.814 185.393C157.086 188.039 155.304 190.776 156.419 192.085C158.238 194.236 167.801 192.625 172.152 187.077C174.264 184.377 174.566 181.493 174.593 180.01V180.019Z" fill="white"/>
<path d="M156.83 195.646C158.448 195.646 160.002 195.481 161.328 195.197C167.398 193.604 169.483 190.757 171.695 187.736C171.978 187.352 172.262 186.968 172.563 186.565C175.727 181.942 176.531 177.053 177.144 172.028V171.863C177.171 171.314 177.253 170.682 177.345 170.023C177.582 168.229 177.857 166.196 177.016 164.347L176.924 164.146L176.787 163.972C176.129 163.13 175.041 162.645 173.459 162.498H173.359C170.324 162.379 167.197 162.178 164.171 161.976C159.07 161.647 153.795 161.29 148.612 161.363H148.383L147.88 161.5C145.037 162.37 144.69 164.796 144.543 165.83C144.214 167.597 143.922 169.419 143.666 171.167C143.593 171.799 143.51 172.403 143.437 173.016C142.77 178.243 142.011 184.175 143.474 189.018L143.529 189.183C145.467 193.906 151.528 195.637 156.812 195.637L156.83 195.646ZM173.514 171.662C172.938 176.367 172.234 180.569 169.601 184.423C169.336 184.77 169.044 185.173 168.751 185.567C166.621 188.469 165.213 190.391 160.478 191.636C155.962 192.616 148.612 191.664 146.966 187.883C145.768 183.8 146.463 178.326 147.085 173.492C147.167 172.87 147.24 172.257 147.313 171.662C147.56 169.995 147.853 168.219 148.182 166.434C148.356 165.217 148.52 165.153 148.904 165.034C153.868 164.988 158.997 165.318 163.961 165.638C166.987 165.83 170.123 166.041 173.194 166.151C173.505 166.178 173.715 166.224 173.843 166.26C174.054 167.139 173.898 168.348 173.743 169.529C173.651 170.224 173.551 170.947 173.523 171.662H173.514Z" fill="#303F8D"/>
<path d="M92.6993 190.016C96.0178 188.679 99.6472 187.755 103.121 187.837C105.599 187.892 111.294 188.029 114.695 191.938C116.148 193.613 116.953 195.71 117.383 200.717C118.269 211.089 118.992 219.639 113.058 226.468C111.943 227.75 108.131 232.007 101.832 233.023C93.4581 234.378 87.1776 228.949 85.9343 227.869C78.9132 221.8 78.4013 213.341 78.3373 211.483C78.0539 203.143 82.1952 195.06 89.7465 191.334C90.6881 190.867 91.6754 190.419 92.6902 190.016H92.6993Z" fill="#CAD2FC"/>
<path d="M99.1721 235.073C100.159 235.073 101.147 235 102.125 234.835C105.361 234.313 110.115 232.647 114.439 227.677C120.884 220.262 120.107 211.135 119.211 200.562C118.782 195.527 117.931 192.863 116.076 190.73C112.145 186.217 105.855 186.07 103.167 186.006C99.7846 185.896 96.0273 186.702 92.0139 188.313C90.9992 188.725 89.957 189.183 88.9331 189.695C81.0619 193.586 76.1892 202.164 76.5 211.547C76.6097 214.833 77.6336 223.127 84.7278 229.26C89.1251 233.059 94.1623 235.073 99.1629 235.073H99.1721ZM102.692 189.668C102.82 189.668 102.957 189.668 103.085 189.668C105.288 189.723 110.453 189.842 113.324 193.137C114.439 194.419 115.161 196.094 115.573 200.873C116.441 211.016 117.118 219.026 111.687 225.269C108.085 229.416 104.191 230.798 101.549 231.219C94.9942 232.281 89.701 228.711 87.1321 226.487C81.1259 221.296 80.2574 214.22 80.166 211.419C79.9008 203.463 83.9781 196.222 90.5604 192.973C91.502 192.506 92.4527 192.085 93.3761 191.709C96.7677 190.345 99.8943 189.659 102.692 189.659V189.668Z" fill="#303F8D"/>
<path d="M119.567 214.696C121.771 214.696 124.01 213.744 126.067 211.904C130.291 208.132 130.401 201.944 128.353 198.026C126.543 194.547 123.892 193.202 121.999 192.68C118.05 191.6 116.075 192.799 115.426 193.192C114.558 193.714 114.265 194.849 114.786 195.71C115.307 196.58 116.404 196.873 117.273 196.351C117.273 196.351 117.309 196.323 117.318 196.323C117.675 196.113 118.617 195.545 121.048 196.213C122.246 196.543 123.919 197.413 125.126 199.719C126.534 202.411 126.488 206.631 123.645 209.167C122.42 210.265 120.536 211.446 118.562 210.897L118.443 210.86C117.465 210.604 116.468 211.199 116.221 212.179C115.975 213.158 116.56 214.156 117.538 214.403C118.205 214.595 118.891 214.687 119.577 214.687L119.567 214.696Z" fill="#303F8D"/>
<path d="M117.465 207.217C118.178 207.217 118.854 206.796 119.147 206.1C119.54 205.166 119.11 204.095 118.178 203.702C114.357 202.072 110.279 200.928 106.074 200.305C101.128 199.573 96.1092 199.573 91.1451 200.305C90.1486 200.452 89.4539 201.386 89.6001 202.383C89.7464 203.381 90.6789 204.077 91.6753 203.93C96.2829 203.253 100.945 203.253 105.535 203.93C109.429 204.507 113.205 205.56 116.733 207.07C116.971 207.171 117.209 207.217 117.447 207.217H117.465Z" fill="#303F8D"/>
<path d="M116.487 220.783C117.2 220.783 117.876 220.362 118.169 219.667C118.562 218.733 118.132 217.662 117.2 217.268C113.369 215.639 109.301 214.494 105.096 213.881C100.15 213.149 95.1312 213.149 90.1671 213.881C89.1706 214.028 88.4758 214.961 88.6221 215.959C88.7684 216.957 89.7008 217.653 90.6973 217.506C95.3049 216.829 99.9673 216.829 104.557 217.506C108.451 218.083 112.217 219.136 115.765 220.646C115.993 220.747 116.24 220.793 116.478 220.793L116.487 220.783Z" fill="#303F8D"/>
<path d="M0.557816 143.347C3.73921 115.115 19.5456 93.7217 35.8549 95.5709C36.4217 95.6349 35.8549 95.5709 37.8752 95.7997C40.0785 96.056 42.1811 96.825 44.0278 98.0517L133.555 157.161C135.813 158.653 137.166 161.18 137.166 163.88V170.682C137.166 174.563 134.405 177.886 130.593 178.591L32.4541 196.827C29.8029 197.751 27.0786 198.108 24.336 197.797C8.01762 195.957 -2.63274 171.579 0.54866 143.347H0.557816Z" fill="#EE8100"/>
<path d="M26.3197 199.225C26.6123 199.225 26.9139 199.152 27.1882 199.005C31.75 196.534 38.0397 192.716 42.0896 188.588C55.0163 175.396 57.0641 158.498 58.2891 148.4C58.9748 142.752 59.4045 133.827 57.5761 123.318C56.0037 114.273 53.4348 107.783 49.7323 103.499C46.9165 100.24 42.9672 96.697 40.7457 95.4337C39.8681 94.9393 38.7528 95.2414 38.25 96.1203C37.7563 96.9991 38.058 98.1159 38.9356 98.6194C40.5903 99.5531 44.2014 102.702 46.9623 105.897C50.1711 109.614 52.5297 115.683 53.965 123.949C55.7202 134.019 55.3089 142.56 54.6506 147.961C53.4073 158.223 51.5332 173.721 39.475 186.025C35.544 190.034 28.9983 193.861 25.4421 195.792C24.5553 196.277 24.2262 197.385 24.7016 198.273C25.0307 198.886 25.6615 199.234 26.3106 199.234L26.3197 199.225Z" fill="#303F8D"/>
<path d="M51.7526 170.636C52.3285 170.636 52.8953 170.362 53.2518 169.849C53.8278 169.016 53.6267 167.881 52.7947 167.304L35.3336 155.138C33.8983 154.14 33.1761 152.382 33.4869 150.661L34.9039 142.871C35.233 141.068 36.6592 139.621 38.4602 139.274L56.3144 135.859C57.3017 135.667 57.9599 134.715 57.768 133.717C57.576 132.728 56.6252 132.078 55.6288 132.261L37.7745 135.676C34.5017 136.298 31.9054 138.926 31.302 142.212L29.885 150.002C29.3182 153.133 30.6347 156.328 33.2401 158.141L50.7012 170.307C51.0212 170.526 51.3869 170.636 51.7434 170.636H51.7526Z" fill="#303F8D"/>
</g>
<defs>
<clipPath id="clip0_510_4372">
<rect width="324" height="277" fill="white" transform="matrix(-1 0 0 1 324 0)"/>
</clipPath>
</defs>
</svg>
