<svg width="200" height="200" viewBox="0 0 200 200" fill="none" xmlns="http://www.w3.org/2000/svg">
    <g clip-path="url(#clip0_1586_13251)">
        <path d="M200 119.204L199.934 80.4587L146.746 80.5446L184.289 42.8765L156.846 15.5193L119.297 53.1941L119.204 0L80.4587 0.066096L80.5512 53.2602L42.8765 15.711L15.526 43.1475L53.2073 80.7033L0 80.7958L0.0727056 119.541L53.2602 119.449L15.711 157.13L43.1541 184.487L80.7099 146.799L80.8024 200L119.548 199.934L119.455 146.733L157.137 184.282L184.487 156.846L146.799 119.29L200 119.204Z" fill="#FFB020"/>
        <path d="M117.05 103.577C117.05 103.617 117.063 103.657 117.063 103.696C117.089 103.379 117.123 103.075 117.136 102.758C117.123 103.035 117.05 103.3 117.05 103.584V103.577Z" fill="white"/>
        <path d="M129.918 80.2548L129.912 80.2557C121.368 81.3593 115.336 89.1801 116.44 97.7241L116.868 101.041C117.972 109.585 125.793 115.616 134.336 114.513L134.343 114.512C142.887 113.408 148.919 105.588 147.815 97.0436L147.386 93.7267C146.283 85.1828 138.462 79.1512 129.918 80.2548Z" fill="white"/>
        <path d="M134.512 115.821C125.259 117.017 116.752 110.46 115.563 101.207L115.133 97.8953C113.937 88.6418 120.493 80.1353 129.747 78.9456C139 77.7492 147.507 84.3059 148.703 93.5594L149.133 96.8708C150.329 106.124 143.772 114.631 134.519 115.821H134.512ZM130.084 81.563C122.278 82.5742 116.746 89.7456 117.75 97.5582L118.18 100.87C119.191 108.676 126.363 114.208 134.175 113.203C141.981 112.192 147.514 105.02 146.509 97.2079L146.079 93.8965C145.068 86.0905 137.897 80.5583 130.084 81.563Z" fill="#303F8D"/>
        <path d="M133.097 92.8203H147.46V100.005C147.46 103.971 144.241 107.19 140.275 107.19C136.31 107.19 133.091 103.971 133.091 100.005V92.8203H133.097Z" fill="#303F8D"/>
        <path d="M106.752 80.1094H106.745C98.1302 80.1094 91.1465 87.0931 91.1465 95.708V99.0525C91.1465 107.667 98.1302 114.651 106.745 114.651H106.752C115.367 114.651 122.35 107.667 122.35 99.0525V95.708C122.35 87.0931 115.367 80.1094 106.752 80.1094Z" fill="white"/>
        <path d="M106.752 115.972C97.4189 115.972 89.8311 108.378 89.8311 99.0514V95.7136C89.8311 86.3808 97.4255 78.793 106.752 78.793C116.078 78.793 123.672 86.3874 123.672 95.7136V99.0514C123.672 108.384 116.078 115.972 106.752 115.972ZM106.752 81.4302C98.8796 81.4302 92.4749 87.8349 92.4749 95.7069V99.0448C92.4749 106.917 98.8796 113.322 106.752 113.322C114.624 113.322 121.028 106.917 121.028 99.0448V95.7069C121.028 87.8349 114.624 81.4302 106.752 81.4302Z" fill="#303F8D"/>
        <path d="M147.46 91.4961H91.417V94.1399H147.46V91.4961Z" fill="#303F8D"/>
        <path d="M107.988 92.8203H122.351V100.005C122.351 103.971 119.132 107.19 115.166 107.19C111.2 107.19 107.981 103.971 107.981 100.005V92.8203H107.988Z" fill="#303F8D"/>
        <path d="M147.156 92.8196C145.801 85.5887 139.456 80.1094 131.828 80.1094C124.201 80.1094 117.849 85.5821 116.494 92.8196H147.156Z" fill="#FFB020"/>
        <path d="M114.895 94.1393L115.185 92.5728C116.679 84.5818 123.679 78.7852 131.822 78.7852C139.965 78.7852 146.951 84.5818 148.451 92.5728L148.742 94.1393H114.895ZM118.173 91.4954H145.464C143.646 85.5732 138.141 81.429 131.822 81.429C125.503 81.429 119.991 85.5732 118.173 91.4954Z" fill="#303F8D"/>
        <path d="M122.079 92.8196C120.724 85.5887 114.379 80.1094 106.751 80.1094C99.1238 80.1094 92.772 85.5821 91.417 92.8196H122.079Z" fill="#FFB020"/>
        <path d="M89.8242 94.1393L90.115 92.5728C91.6088 84.5818 98.6084 78.7852 106.751 78.7852C114.894 78.7852 121.881 84.5818 123.381 92.5728L123.672 94.1393H89.8242ZM93.1026 91.4954H120.394C118.576 85.5732 113.07 81.429 106.751 81.429C100.433 81.429 94.9202 85.5732 93.1026 91.4954Z" fill="#303F8D"/>
        <path d="M99.6396 125.981C99.1174 125.981 98.6217 125.663 98.4102 125.148C98.1392 124.467 98.4697 123.7 99.1439 123.429C101.061 122.663 107.935 120.171 116.137 120.415C118.265 120.481 120.308 120.719 122.198 121.136C122.912 121.294 123.361 121.995 123.203 122.709C123.044 123.423 122.337 123.872 121.63 123.713C119.898 123.33 118.027 123.112 116.064 123.052C108.411 122.834 101.933 125.154 100.135 125.875C99.9767 125.941 99.8048 125.967 99.6462 125.967L99.6396 125.981Z" fill="#303F8D"/>
    </g>
    <defs>
        <clipPath id="clip0_1586_13251">
            <rect width="200" height="200" fill="white"/>
        </clipPath>
    </defs>
</svg>
