<svg width="200" height="200" viewBox="0 0 200 200" fill="none" xmlns="http://www.w3.org/2000/svg">
    <g clip-path="url(#clip0_1586_13169)">
        <path d="M199.934 80.4587L200 119.204L146.813 119.297L184.494 156.853L157.143 184.289L119.462 146.74L119.555 199.941L80.809 200.007L80.7165 146.806L43.1607 184.487L15.7176 157.13L53.2668 119.455L0.0727056 119.541L0 80.7958L33.6825 80.7363L45.4344 80.7165L53.2007 80.7033L15.5193 43.1475L42.8699 15.711L80.5512 53.2602L80.4587 0.066096L119.204 0L119.297 53.1941L156.846 15.5194L184.289 42.8765L146.74 80.5513L199.934 80.4587Z" fill="#00C882"/>
        <path d="M117.05 103.257C117.05 103.297 117.063 103.336 117.063 103.376C117.089 103.059 117.123 102.755 117.136 102.438C117.123 102.715 117.05 102.979 117.05 103.264V103.257Z" fill="white"/>
        <path d="M132.133 79.7773H132.126C123.511 79.7773 116.527 86.7611 116.527 95.376V98.7205C116.527 107.335 123.511 114.319 132.126 114.319H132.133C140.748 114.319 147.731 107.335 147.731 98.7205V95.376C147.731 86.7611 140.748 79.7773 132.133 79.7773Z" fill="white"/>
        <path d="M132.126 115.64C122.793 115.64 115.205 108.046 115.205 98.7194V95.3815C115.205 86.0488 122.8 78.4609 132.126 78.4609C141.452 78.4609 149.046 86.0554 149.046 95.3815V98.7194C149.046 108.052 141.452 115.64 132.126 115.64ZM132.126 81.0982C124.254 81.0982 117.849 87.5029 117.849 95.3749V98.7128C117.849 106.585 124.254 112.99 132.126 112.99C139.998 112.99 146.402 106.585 146.402 98.7128V95.3749C146.402 87.5029 139.998 81.0982 132.126 81.0982Z" fill="#303F8D"/>
        <path d="M130.533 92.8203H144.896V100.005C144.896 103.971 141.677 107.19 137.711 107.19C133.745 107.19 130.526 103.971 130.526 100.005V92.8203H130.533Z" fill="#303F8D"/>
        <path d="M106.752 79.7773H106.745C98.1302 79.7773 91.1465 86.7611 91.1465 95.376V98.7205C91.1465 107.335 98.1302 114.319 106.745 114.319H106.752C115.367 114.319 122.35 107.335 122.35 98.7205V95.376C122.35 86.7611 115.367 79.7773 106.752 79.7773Z" fill="white"/>
        <path d="M106.752 115.64C97.4189 115.64 89.8311 108.046 89.8311 98.7194V95.3815C89.8311 86.0488 97.4255 78.4609 106.752 78.4609C116.078 78.4609 123.672 86.0554 123.672 95.3815V98.7194C123.672 108.052 116.078 115.64 106.752 115.64ZM106.752 81.0982C98.8796 81.0982 92.4749 87.5029 92.4749 95.3749V98.7128C92.4749 106.585 98.8796 112.99 106.752 112.99C114.624 112.99 121.028 106.585 121.028 98.7128V95.3749C121.028 87.5029 114.624 81.0982 106.752 81.0982Z" fill="#303F8D"/>
        <path d="M147.46 91.168H91.417V93.8118H147.46V91.168Z" fill="#303F8D"/>
        <path d="M105.073 92.4883H119.436V99.6729C119.436 103.639 116.217 106.858 112.251 106.858C108.285 106.858 105.066 103.639 105.066 99.6729V92.4883H105.073Z" fill="#303F8D"/>
        <path d="M147.46 92.4876C146.105 85.2567 139.76 79.7773 132.132 79.7773C124.505 79.7773 118.153 85.2501 116.798 92.4876H147.46Z" fill="#49D948"/>
        <path d="M115.205 93.815L115.496 92.2486C116.99 84.2576 123.989 78.4609 132.132 78.4609C140.275 78.4609 147.262 84.2576 148.762 92.2486L149.053 93.815H115.205ZM118.483 91.1646H145.774C143.957 85.2424 138.451 81.0982 132.132 81.0982C125.813 81.0982 120.301 85.2424 118.483 91.1646Z" fill="#303F8D"/>
        <path d="M122.079 92.4876C120.724 85.2567 114.379 79.7773 106.751 79.7773C99.1238 79.7773 92.772 85.2501 91.417 92.4876H122.079Z" fill="#49D948"/>
        <path d="M89.8242 93.815L90.115 92.2486C91.6088 84.2576 98.6084 78.4609 106.751 78.4609C114.894 78.4609 121.881 84.2576 123.381 92.2486L123.672 93.815H89.8242ZM93.1026 91.1646H120.394C118.576 85.2424 113.07 81.0982 106.751 81.0982C100.433 81.0982 94.9202 85.2424 93.1026 91.1646Z" fill="#303F8D"/>
        <path d="M102.383 119.001C102.806 117.851 105.245 119.093 105.371 119.067C106.706 118.783 107.836 119.45 108.583 119.82C112.337 121.684 116.614 121.195 118.002 121.043C120.652 120.746 121.492 119.92 123.66 120.422C124.413 120.6 125.808 120.944 126.627 122.101C127.698 123.614 127.156 125.61 126.7 127.217C126.217 128.902 125.127 132.716 121.234 135.115C120.632 135.485 115.728 138.387 110.506 136.02C105.979 133.965 104.677 129.08 104.009 126.668C103.361 124.315 102.04 119.939 102.383 119.007V119.001Z" fill="#303F8D"/>
        <path d="M104.703 131.564C105.219 130.836 106.567 129.184 108.794 128.807C111.372 128.378 113.487 129.924 115.49 131.398C117.235 132.681 119.039 134.002 118.742 135.08C118.259 136.845 112.165 137.988 108.081 135.47C106.091 134.247 105.126 132.495 104.703 131.564Z" fill="white"/>
        <path d="M114.796 138.26C113.289 138.26 111.643 137.982 109.964 137.216C104.921 134.929 103.46 129.628 102.76 127.083L102.74 127.011C102.601 126.495 100.645 120.328 101.312 118.511C101.96 116.752 104.313 117.506 105.093 117.777C106.719 118.326 109.938 119.958 117.856 119.733C118.755 119.707 119.409 119.469 120.044 119.31C121.194 119.02 122.285 118.749 123.963 119.139C124.75 119.324 126.581 119.747 127.711 121.346C129.172 123.408 128.451 125.92 127.975 127.586C127.466 129.383 126.264 133.58 121.934 136.244C121.227 136.68 118.398 138.267 114.802 138.267L114.796 138.26ZM104.525 121.042C104.372 121.531 104.558 123.679 105.285 126.31L105.304 126.383C105.946 128.709 107.142 133.032 111.055 134.81C115.516 136.839 119.74 134.479 120.546 133.984C124.003 131.855 124.968 128.478 125.431 126.852C125.893 125.233 126.224 123.812 125.55 122.86C125.001 122.086 123.937 121.835 123.362 121.703C122.311 121.458 121.736 121.604 120.685 121.862C120.031 122.027 119.224 122.225 118.154 122.351C116.66 122.523 112.099 123.038 107.995 121.002L107.783 120.897C107.135 120.566 106.408 120.196 105.648 120.361C105.258 120.447 104.65 120.731 104.531 121.042H104.525Z" fill="#303F8D"/>
    </g>
    <defs>
        <clipPath id="clip0_1586_13169">
            <rect width="200" height="200" fill="white"/>
        </clipPath>
    </defs>
</svg>
