<svg width="200" height="200" viewBox="0 0 200 200" fill="none" xmlns="http://www.w3.org/2000/svg">
<g clip-path="url(#clip0_784_2901)">
<path d="M200 119.204L199.934 80.4587L146.746 80.5446L184.289 42.8765L156.846 15.5193L119.297 53.1941L119.204 0L80.4587 0.066096L80.5512 53.2602L42.8765 15.711L15.526 43.1475L53.2073 80.7033L0 80.7958L0.0727056 119.541L53.2602 119.449L15.711 157.13L43.1541 184.487L80.7099 146.799L80.8024 200L119.548 199.934L119.455 146.733L157.137 184.282L184.487 156.846L146.799 119.29L200 119.204Z" fill="#CAD2FC"/>
<path d="M117.05 103.579C117.05 103.619 117.063 103.658 117.063 103.698C117.089 103.381 117.123 103.077 117.136 102.76C117.123 103.037 117.05 103.302 117.05 103.586V103.579Z" fill="white"/>
<path d="M129.918 80.2553L129.912 80.2562C121.368 81.3598 115.336 89.1806 116.44 97.7245L116.868 101.041C117.972 109.585 125.793 115.617 134.336 114.513L134.343 114.513C142.887 113.409 148.919 105.588 147.815 97.0441L147.386 93.7272C146.283 85.1833 138.462 79.1517 129.918 80.2553Z" fill="white"/>
<path d="M134.512 115.82C125.259 117.016 116.752 110.46 115.563 101.206L115.133 97.8948C113.937 88.6414 120.493 80.1348 129.747 78.9451C139 77.7487 147.507 84.3055 148.703 93.5589L149.133 96.8703C150.329 106.124 143.772 114.63 134.519 115.82H134.512ZM130.084 81.5625C122.278 82.5737 116.746 89.7452 117.75 97.5577L118.18 100.869C119.191 108.675 126.363 114.207 134.175 113.203C141.981 112.191 147.514 105.02 146.509 97.2074L146.079 93.896C145.068 86.09 137.897 80.5578 130.084 81.5625Z" fill="#303F8D"/>
<path d="M133.097 92.8186H147.46V100.003C147.46 103.969 144.241 107.188 140.275 107.188C136.31 107.188 133.091 103.969 133.091 100.003V92.8186H133.097Z" fill="#303F8D"/>
<path d="M106.752 80.1084H106.745C98.1302 80.1084 91.1465 87.0922 91.1465 95.7071V99.0515C91.1465 107.666 98.1302 114.65 106.745 114.65H106.752C115.367 114.65 122.35 107.666 122.35 99.0515V95.7071C122.35 87.0922 115.367 80.1084 106.752 80.1084Z" fill="white"/>
<path d="M106.752 115.972C97.4189 115.972 89.8311 108.378 89.8311 99.0514V95.7136C89.8311 86.3808 97.4255 78.793 106.752 78.793C116.078 78.793 123.672 86.3874 123.672 95.7136V99.0514C123.672 108.384 116.078 115.972 106.752 115.972ZM106.752 81.4302C98.8796 81.4302 92.4749 87.8349 92.4749 95.7069V99.0448C92.4749 106.917 98.8796 113.322 106.752 113.322C114.624 113.322 121.028 106.917 121.028 99.0448V95.7069C121.028 87.8349 114.624 81.4302 106.752 81.4302Z" fill="#303F8D"/>
<path d="M147.46 91.4968H91.417V94.1407H147.46V91.4968Z" fill="#303F8D"/>
<path d="M107.988 92.8186H122.351V100.003C122.351 103.969 119.132 107.188 115.166 107.188C111.2 107.188 107.981 103.969 107.981 100.003V92.8186H107.988Z" fill="#303F8D"/>
<path d="M147.156 92.8187C145.801 85.5878 139.456 80.1084 131.828 80.1084C124.201 80.1084 117.849 85.5811 116.494 92.8187H147.156Z" fill="#CAD2FC"/>
<path d="M114.895 94.1405L115.185 92.574C116.679 84.583 123.679 78.7864 131.822 78.7864C139.965 78.7864 146.951 84.583 148.451 92.574L148.742 94.1405H114.895ZM118.173 91.4966H145.464C143.646 85.5744 138.141 81.4302 131.822 81.4302C125.503 81.4302 119.991 85.5744 118.173 91.4966Z" fill="#303F8D"/>
<path d="M122.079 92.8187C120.724 85.5878 114.379 80.1084 106.751 80.1084C99.1238 80.1084 92.772 85.5811 91.417 92.8187H122.079Z" fill="#CAD2FC"/>
<path d="M89.8242 94.1405L90.115 92.574C91.6088 84.583 98.6084 78.7864 106.751 78.7864C114.894 78.7864 121.881 84.583 123.381 92.574L123.672 94.1405H89.8242ZM93.1026 91.4966H120.394C118.576 85.5744 113.07 81.4302 106.751 81.4302C100.433 81.4302 94.9202 85.5744 93.1026 91.4966Z" fill="#303F8D"/>
<path d="M112.952 130.764C110.625 130.764 108.318 130.308 106.164 129.37C99.6135 126.528 97.353 120.493 96.8176 118.715C96.6061 118.015 97.0027 117.281 97.7033 117.069C98.3973 116.858 99.1376 117.254 99.3491 117.955C99.8052 119.462 101.715 124.558 107.221 126.951C112.502 129.244 118.907 128.127 123.54 124.095C124.089 123.613 124.928 123.672 125.404 124.228C125.887 124.776 125.827 125.616 125.272 126.091C121.749 129.158 117.327 130.771 112.958 130.771L112.952 130.764Z" fill="#303F8D"/>
</g>
<defs>
<clipPath id="clip0_784_2901">
<rect width="200" height="200" fill="white"/>
</clipPath>
</defs>
</svg>
