<svg width="150" height="152" viewBox="0 0 150 152" fill="none" xmlns="http://www.w3.org/2000/svg">
<g clip-path="url(#clip0_1193_9789)">
<path d="M133.602 104.706C133.602 102.162 130.984 100.103 127.751 100.103C125.495 100.103 123.54 101.109 122.563 102.586L105.911 86.0037L144.293 85.937L144.245 58.0045L105.868 58.0712L132.958 30.9106L113.159 11.1882L86.0687 38.3488L86.0019 0L58.0486 0.0476501L58.1154 38.4012L30.9298 11.3312L11.1975 31.1107L38.383 58.1855L31.6689 58.1951C31.378 56.0985 30.1143 54.5212 28.6027 54.5212C27.0911 54.5212 25.8226 56.1032 25.5318 58.2046L-0.00390625 58.2475L0.048548 86.18L13.1383 86.1561C14.1873 86.9662 15.8325 87.538 17.7352 87.6285C20.3912 87.7572 22.7183 87.2092 23.6911 86.1371L38.426 86.1133L11.3357 113.274L31.1348 132.996L58.2298 105.831L58.2966 144.184L86.2499 144.137L86.1831 105.783L113.369 132.853L133.101 113.074L129.181 109.166C131.718 108.666 133.602 106.86 133.602 104.706Z" fill="#CAD2FC"/>
<path d="M84.4453 74.6729C84.4453 74.7015 84.4549 74.7301 84.4549 74.7587C84.4739 74.5299 84.4978 74.3108 84.5073 74.082C84.4978 74.2822 84.4453 74.4728 84.4453 74.6777V74.6729Z" fill="white"/>
<path d="M95.3289 57.75H95.3241C89.1088 57.75 84.0703 62.7847 84.0703 68.9954V71.4065C84.0703 77.6172 89.1088 82.6519 95.3241 82.6519H95.3289C101.544 82.6519 106.583 77.6172 106.583 71.4065V68.9954C106.583 62.7847 101.544 57.75 95.3289 57.75Z" fill="white"/>
<path d="M95.3247 83.6079C88.5915 83.6079 83.1172 78.1329 83.1172 71.4094V69.0031C83.1172 62.2749 88.5963 56.8047 95.3247 56.8047C102.053 56.8047 107.532 62.2797 107.532 69.0031V71.4094C107.532 78.1376 102.053 83.6079 95.3247 83.6079ZM95.3247 58.7059C89.6453 58.7059 85.0246 63.3232 85.0246 68.9983V71.4047C85.0246 77.0798 89.6453 81.6971 95.3247 81.6971C101.004 81.6971 105.625 77.0798 105.625 71.4047V68.9983C105.625 63.3232 101.004 58.7059 95.3247 58.7059Z" fill="#303F8D"/>
<path d="M94.1727 67.1523H104.535V72.3319C104.535 75.1909 102.213 77.5115 99.3514 77.5115C96.4903 77.5115 94.168 75.1909 94.168 72.3319V67.1523H94.1727Z" fill="#303F8D"/>
<path d="M77.0164 57.75H77.0116C70.7963 57.75 65.7578 62.7847 65.7578 68.9954V71.4065C65.7578 77.6172 70.7963 82.6519 77.0116 82.6519H77.0164C83.2317 82.6519 88.2702 77.6172 88.2702 71.4065V68.9954C88.2702 62.7847 83.2317 57.75 77.0164 57.75Z" fill="white"/>
<path d="M77.0161 83.6079C70.2829 83.6079 64.8086 78.1329 64.8086 71.4094V69.0031C64.8086 62.2749 70.2877 56.8047 77.0161 56.8047C83.7446 56.8047 89.2236 62.2797 89.2236 69.0031V71.4094C89.2236 78.1376 83.7446 83.6079 77.0161 83.6079ZM77.0161 58.7059C71.3368 58.7059 66.716 63.3232 66.716 68.9983V71.4047C66.716 77.0798 71.3368 81.6971 77.0161 81.6971C82.6955 81.6971 87.3162 77.0798 87.3162 71.4047V68.9983C87.3162 63.3232 82.6955 58.7059 77.0161 58.7059Z" fill="#303F8D"/>
<path d="M106.386 65.9609H65.9531V67.8669H106.386V65.9609Z" fill="#303F8D"/>
<path d="M75.8055 66.9141H86.1676V72.0936C86.1676 74.9526 83.8453 77.2732 80.9842 77.2732C78.1231 77.2732 75.8008 74.9526 75.8008 72.0936V66.9141H75.8055Z" fill="#303F8D"/>
<path d="M106.387 66.9131C105.409 61.7002 100.832 57.75 95.3287 57.75C89.8258 57.75 85.2432 61.6954 84.2656 66.9131H106.387Z" fill="#CAD2FC"/>
<path d="M83.1172 67.8699L83.327 66.7406C84.4047 60.9797 89.4546 56.8008 95.3295 56.8008C101.204 56.8008 106.245 60.9797 107.327 66.7406L107.537 67.8699H83.1172ZM85.4824 65.9639H105.172C103.86 61.6944 99.8882 58.7068 95.3295 58.7068C90.7707 58.7068 86.7937 61.6944 85.4824 65.9639Z" fill="#303F8D"/>
<path d="M88.0745 66.9131C87.0969 61.7002 82.5191 57.75 77.0162 57.75C71.5133 57.75 66.9307 61.6954 65.9531 66.9131H88.0745Z" fill="#CAD2FC"/>
<path d="M64.8047 67.8699L65.0145 66.7406C66.0922 60.9797 71.1421 56.8008 77.017 56.8008C82.8919 56.8008 87.9322 60.9797 89.0147 66.7406L89.2245 67.8699H64.8047ZM67.1699 65.9639H86.8593C85.5479 61.6944 81.5757 58.7068 77.017 58.7068C72.4582 58.7068 68.4813 61.6944 67.1699 65.9639Z" fill="#303F8D"/>
<path d="M24.1675 81.0129C23.8528 81.0129 23.5429 80.8556 23.3617 80.5697C23.0803 80.1266 23.2091 79.5357 23.6573 79.2546C24.7159 78.5827 25.3311 77.401 25.2548 76.1764C25.1689 74.704 24.1008 73.689 23.2138 73.2649C22.9945 73.1601 22.756 73.0791 22.5128 73.0267L13.4335 71.8069C12.9137 71.7354 12.5465 71.2589 12.6133 70.7347C12.6801 70.2106 13.1569 69.8437 13.6862 69.9151L22.861 71.1493C23.271 71.2303 23.6668 71.3637 24.034 71.54C25.3883 72.1833 27.0191 73.7557 27.1574 76.0572C27.2719 77.9775 26.3229 79.8168 24.6778 80.8604C24.5204 80.9604 24.344 81.0081 24.1675 81.0081V81.0129Z" fill="#303F8D"/>
<path d="M18.2702 88.3519C17.6265 88.3519 17.0638 88.3137 16.7109 88.247C16.1959 88.147 15.8573 87.6466 15.9575 87.1273C16.0576 86.6079 16.5583 86.2743 17.0781 86.3744C17.6884 86.4935 19.6149 86.4792 20.9263 86.2171C22.5333 85.8931 23.6062 85.2784 24.1165 84.3874C24.5313 83.6679 24.6649 82.5195 24.1737 81.8428C23.8256 81.3711 23.2915 80.8374 21.9325 80.4801C19.6245 79.8701 18.8281 79.7653 17.7314 79.6176C17.4786 79.5842 17.2164 79.5509 16.9159 79.5032C15.8001 79.3412 14.0739 79.1459 11.9948 79.284C11.4655 79.3174 11.0125 78.9219 10.9791 78.3977C10.9409 77.8736 11.3415 77.4162 11.866 77.3828C14.1263 77.2256 15.9861 77.44 17.1925 77.6163C17.4834 77.6592 17.7409 77.6925 17.9841 77.7259C19.1095 77.8784 19.9964 77.9975 22.4189 78.636C24.3644 79.1506 25.1989 80.0178 25.7092 80.7183C26.7535 82.143 26.4674 84.111 25.7664 85.3356C24.97 86.7222 23.4679 87.6466 21.2983 88.085C20.397 88.2661 19.2382 88.3519 18.2654 88.3519H18.2702Z" fill="#303F8D"/>
<path d="M24.7566 74.1022C24.4848 74.1022 24.213 73.9878 24.0223 73.7591C23.6837 73.354 23.7409 72.7537 24.1415 72.4153C24.3656 72.2295 26.3255 70.5046 26.0298 67.6932C25.863 66.1112 24.6708 64.8819 24.2226 64.4197L24.1653 64.3577C23.7982 63.9765 23.8125 63.3761 24.1892 63.0092C24.5707 62.6423 25.1715 62.6566 25.5387 63.033L25.5959 63.0902C26.1157 63.6239 27.6988 65.2535 27.9325 67.4883C28.3331 71.2813 25.6722 73.6209 25.3718 73.8734C25.1954 74.0212 24.976 74.0926 24.7614 74.0926L24.7566 74.1022Z" fill="#303F8D"/>
<path d="M13.5586 87.2336C13.3917 87.2336 13.22 87.1907 13.0674 87.0954C12.4713 86.738 11.3698 86.0757 10.6402 85.3514C9.16672 83.8838 8.97121 81.9397 8.80908 80.3815C8.66125 78.9139 8.78046 78.0133 9.09519 75.607L9.22394 74.6254C9.63404 71.4995 10.0584 68.2689 11.2983 65.286C11.5319 64.7285 12.0755 63.4229 13.425 62.7081C14.5075 62.1363 15.5757 62.2316 16.0907 62.2792C17.6738 62.427 21.317 62.5842 23.9779 62.7033L24.8887 62.7415C25.4132 62.7653 25.8233 63.2084 25.7995 63.7373C25.7756 64.2615 25.3322 64.6713 24.8028 64.6475L23.8968 64.6093C21.0691 64.4854 17.5499 64.3282 15.9333 64.1805C15.5137 64.1424 14.8985 64.0852 14.3168 64.3949C13.6587 64.7428 13.3106 65.4146 13.0579 66.0245C11.9134 68.774 11.5081 71.8807 11.1123 74.8827L10.9835 75.8691C10.6688 78.242 10.5734 78.9568 10.7022 80.2005C10.8691 81.8539 11.0598 83.0928 11.9849 84.0125C12.5476 84.57 13.5204 85.1561 14.045 85.4706C14.498 85.7422 14.641 86.3283 14.374 86.7762C14.1928 87.0764 13.8781 87.2384 13.5538 87.2384L13.5586 87.2336Z" fill="#303F8D"/>
<path d="M32.7983 70.2212C32.3214 70.2212 31.9113 69.8638 31.8541 69.3826C31.3677 65.3657 31.2819 62.3304 31.2151 60.1099C31.1865 59.1187 31.1627 58.3325 31.115 57.7083C31.0387 56.7744 30.7573 56.0691 30.3234 55.7213C29.5843 55.1304 28.6926 55.0065 27.7484 55.3734C27.0236 55.6546 26.6707 56.3646 26.2987 57.1222C25.4785 58.7852 25.6073 62.3447 25.8028 63.5454C25.8839 64.0648 25.531 64.5556 25.0112 64.6366C24.4914 64.7176 24.0003 64.365 23.9192 63.8456C23.7714 62.9165 23.4233 58.6422 24.5916 56.2788C25.0351 55.3782 25.6454 54.1441 27.0665 53.5961C28.6353 52.9909 30.2566 53.2244 31.5203 54.2346C32.3834 54.9255 32.8984 56.0691 33.0224 57.5558C33.0749 58.2325 33.1035 59.0759 33.1321 60.0527C33.1941 62.2351 33.2847 65.2227 33.7568 69.1539C33.8188 69.678 33.4468 70.1497 32.9223 70.2117C32.8841 70.2117 32.846 70.2165 32.8078 70.2165L32.7983 70.2212Z" fill="#303F8D"/>
<path d="M74.5123 87.1727C74.8174 86.3436 75.9285 86.0958 76.0191 86.0768C76.9824 85.8719 77.7978 86.3532 78.3366 86.62C81.0452 87.9637 84.1305 87.6111 85.1319 87.5015C87.044 87.2871 87.6497 86.6915 89.2137 87.0536C89.7574 87.1823 90.7635 87.43 91.3548 88.2639C92.1273 89.3551 91.7363 90.7941 91.4073 91.952C91.0592 93.1671 90.2724 95.9165 87.4637 97.6462C87.0297 97.9131 83.4915 100.005 79.7243 98.299C76.4578 96.8171 75.5184 93.2958 75.0368 91.5565C74.5552 89.8173 74.2643 87.8541 74.5123 87.1775V87.1727Z" fill="#303F8D"/>
<path d="M75.5391 95.0865C75.911 94.5623 76.8838 93.3711 78.4908 93.0995C80.3505 92.7897 81.8765 93.9047 83.3214 94.9673C84.5803 95.8917 85.8821 96.8447 85.6675 97.6214C85.3194 98.8937 80.9228 99.7181 77.9758 97.9026C76.5405 97.0211 75.8443 95.7583 75.5391 95.0865Z" fill="white"/>
<path d="M82.8219 99.9126C81.7347 99.9126 80.5473 99.7124 79.3361 99.1597C75.6977 97.511 74.6438 93.6895 74.1383 91.8549L74.124 91.8025C74.0239 91.4308 73.1417 88.1573 73.6233 86.8421C74.0907 85.5746 75.5355 85.203 75.8217 85.141C77.0329 84.8837 78.0295 85.3888 78.6256 85.6938L78.7639 85.7652C81.2197 86.9851 84.0856 86.6611 85.0297 86.5515C85.6783 86.48 86.1504 86.3609 86.6081 86.2465C87.4379 86.0368 88.2247 85.8415 89.4359 86.1226C90.0034 86.256 91.3243 86.561 92.1397 87.7141C93.1935 89.2008 92.6738 91.0115 92.3304 92.2123C91.9632 93.5084 91.0954 96.5342 87.972 98.4545C87.4617 98.769 85.4208 99.9126 82.8267 99.9126H82.8219ZM75.4116 87.4949C75.3019 87.8475 75.4354 89.3962 75.9599 91.2927L75.9742 91.3451C76.4368 93.0223 77.2999 96.1387 80.1229 97.4205C83.3417 98.8833 86.3888 97.1822 86.9706 96.8248C89.4645 95.2905 90.1607 92.8556 90.4945 91.6834C90.8283 90.516 91.0668 89.4915 90.5804 88.8053C90.1846 88.2478 89.4168 88.0667 89.002 87.9714C88.2438 87.7951 87.8289 87.9 87.0707 88.0858C86.5986 88.2049 86.0168 88.3479 85.2443 88.4384C84.1666 88.5623 80.8763 88.934 77.9151 87.4663L77.7625 87.3901C77.2951 87.1519 76.7706 86.885 76.2222 87.0041C75.9409 87.0661 75.5022 87.271 75.4163 87.4949H75.4116Z" fill="#303F8D"/>
<path d="M121.721 102.023C121.606 101.68 121.058 99.9073 122.016 98.1966C123.275 95.9476 125.993 95.857 126.198 95.8523C128.845 95.8046 131.539 98.2109 132.431 101.87" fill="#CAD2FC"/>
<path d="M121.724 102.975C121.324 102.975 120.952 102.723 120.818 102.322C120.57 101.579 120.117 99.6444 121.185 97.7336C122.697 95.0319 125.83 94.908 126.183 94.8984C126.212 94.8984 126.245 94.8984 126.274 94.8984C129.43 94.8984 132.401 97.7193 133.355 101.641C133.479 102.151 133.164 102.67 132.654 102.794C132.139 102.918 131.624 102.603 131.5 102.094C130.751 99.0154 128.558 96.8044 126.274 96.8044C126.254 96.8044 126.231 96.8044 126.212 96.8044C126.116 96.8044 123.851 96.8616 122.85 98.6628C122.13 99.9493 122.497 101.331 122.63 101.727C122.797 102.227 122.525 102.765 122.025 102.932C121.925 102.966 121.824 102.98 121.724 102.98V102.975Z" fill="#303F8D"/>
<path d="M105.453 136.238L100.98 146.845C100.684 147.546 101.385 148.256 102.091 147.97L106.03 146.369C106.468 146.192 106.964 146.402 107.145 146.836L108.733 150.733C109.019 151.439 110.016 151.443 110.312 150.743L114.775 140.165" fill="#F4D93E"/>
<path d="M135.948 136.238L140.42 146.845C140.716 147.546 140.015 148.256 139.309 147.97L135.371 146.369C134.932 146.192 134.436 146.402 134.255 146.836L132.667 150.733C132.381 151.439 131.384 151.443 131.088 150.743L126.625 140.165" fill="#F4D93E"/>
<path d="M123.834 102.524L124.187 102.891C126.529 105.331 129.786 106.674 133.171 106.608L133.681 106.598C136.152 106.551 138.164 108.561 138.116 111.03L138.107 111.539C138.04 114.918 139.389 118.172 141.826 120.517L142.193 120.869C143.977 122.58 143.977 125.425 142.193 127.135L141.826 127.488C139.385 129.828 138.04 133.082 138.107 136.465L138.116 136.975C138.164 139.443 136.152 141.454 133.681 141.407L133.171 141.397C129.79 141.33 126.533 142.679 124.187 145.114L123.834 145.481C122.122 147.263 119.276 147.263 117.564 145.481L117.211 145.114C114.87 142.674 111.613 141.33 108.227 141.397L107.717 141.407C105.247 141.454 103.234 139.443 103.282 136.975L103.291 136.465C103.358 133.087 102.009 129.832 99.572 127.488L99.2048 127.135C97.4213 125.425 97.4213 122.58 99.2048 120.869L99.572 120.517C102.013 118.177 103.358 114.923 103.291 111.539L103.282 111.03C103.234 108.561 105.247 106.551 107.717 106.598L108.227 106.608C111.608 106.674 114.865 105.326 117.211 102.891L117.564 102.524C119.276 100.742 122.122 100.742 123.834 102.524Z" fill="#EE8100"/>
<path d="M120.698 139.288C129.142 139.288 135.986 132.448 135.986 124.011C135.986 115.574 129.142 108.734 120.698 108.734C112.255 108.734 105.41 115.574 105.41 124.011C105.41 132.448 112.255 139.288 120.698 139.288Z" fill="#F4D93E"/>
<path d="M125.017 131.367C124.727 131.367 124.431 131.276 124.183 131.095L120.702 128.565L117.221 131.095C116.72 131.458 116.048 131.458 115.552 131.095C115.051 130.733 114.846 130.095 115.037 129.509L116.367 125.415L112.886 122.885C112.386 122.523 112.18 121.885 112.371 121.299C112.562 120.712 113.106 120.317 113.721 120.317H118.027L119.357 116.224C119.548 115.638 120.092 115.242 120.707 115.242C121.322 115.242 121.865 115.638 122.056 116.224L123.387 120.317H127.693C128.308 120.317 128.851 120.712 129.042 121.299C129.233 121.885 129.023 122.523 128.527 122.885L125.041 125.415L126.372 129.509C126.562 130.095 126.353 130.733 125.857 131.095C125.609 131.276 125.313 131.367 125.022 131.367H125.017ZM115.208 122.228L117.764 124.086C118.265 124.448 118.47 125.087 118.279 125.673L117.302 128.68L119.858 126.821C120.359 126.459 121.031 126.459 121.527 126.821L124.083 128.68L123.105 125.673C122.914 125.082 123.124 124.448 123.625 124.086L126.181 122.228H123.019C122.399 122.228 121.861 121.832 121.67 121.246L120.692 118.244L119.715 121.251C119.524 121.837 118.98 122.232 118.365 122.232H115.204L115.208 122.228Z" fill="#303F8D"/>
<path d="M148.414 113.496C148.972 112.333 149.453 110.618 148.547 108.083C148.037 106.653 146.292 103.561 144.05 102.203C141.494 100.65 138.681 98.815 134.103 99.9586C133.245 100.173 130.651 101.169 128.4 103.623C125.601 106.673 127.546 110.89 128.495 112.648C130.007 115.445 133.684 118.604 134.537 119.076C138.342 121.177 140.665 121.13 144.232 118.566C145.963 117.322 147.632 115.135 148.414 113.501V113.496Z" fill="#CAD2FC"/>
<path d="M139.214 121.531C137.65 121.531 136.019 120.988 134.073 119.911C133.1 119.373 129.276 116.104 127.655 113.102C125.413 108.951 125.428 105.449 127.698 102.976C129.958 100.517 132.643 99.3404 133.868 99.0307C138.694 97.8252 141.813 99.7216 144.316 101.246L144.545 101.385C146.977 102.862 148.841 106.078 149.442 107.76C150.243 109.995 150.186 112.006 149.271 113.912C148.493 115.532 146.758 117.919 144.783 119.339C142.742 120.807 141.016 121.531 139.214 121.531ZM136.848 100.556C136.076 100.556 135.241 100.656 134.331 100.884C133.377 101.123 131.059 102.137 129.1 104.267C126.992 106.564 128.06 109.847 129.333 112.196C130.735 114.793 134.288 117.852 134.993 118.243C138.522 120.192 140.473 120.092 143.667 117.795C145.294 116.628 146.848 114.546 147.549 113.092C147.983 112.187 148.469 110.715 147.644 108.408C147.23 107.246 145.623 104.277 143.553 103.024L143.324 102.886C141.441 101.742 139.509 100.565 136.848 100.565V100.556Z" fill="#303F8D"/>
<path d="M131.801 117.524C131.563 117.524 131.32 117.433 131.134 117.252C130.757 116.885 130.752 116.28 131.12 115.904C132.135 114.87 132.588 114.269 133.871 112.03C135.125 109.838 138.091 104.382 138.601 101.042C138.682 100.522 139.169 100.165 139.689 100.246C140.208 100.327 140.566 100.813 140.485 101.332C139.946 104.858 137.147 110.138 135.526 112.978C134.238 115.232 133.671 116.028 132.483 117.238C132.297 117.428 132.049 117.524 131.801 117.524Z" fill="#303F8D"/>
<path d="M137.831 121.137C137.588 121.137 137.345 121.046 137.159 120.861C136.782 120.489 136.782 119.889 137.149 119.512C138.16 118.488 138.833 117.658 140.12 115.433L140.287 115.147C141.803 112.531 143.372 109.825 144.96 104.397C145.108 103.892 145.637 103.602 146.143 103.749C146.648 103.897 146.939 104.426 146.791 104.931C145.141 110.582 143.51 113.389 141.937 116.105L141.77 116.391C140.387 118.783 139.615 119.736 138.503 120.856C138.318 121.046 138.07 121.137 137.826 121.137H137.831Z" fill="#303F8D"/>
</g>
<defs>
<clipPath id="clip0_1193_9789">
<rect width="150" height="151.26" fill="white"/>
</clipPath>
</defs>
</svg>
