<svg width="119" height="102" viewBox="0 0 119 102" fill="none" xmlns="http://www.w3.org/2000/svg">
<g clip-path="url(#clip0_1289_13229)">
<path d="M101.6 60.7941L101.567 41.0339L74.5475 41.0778L93.6191 21.867L79.678 7.91487L60.603 27.129L60.556 0L40.8732 0.033709L40.9202 27.1627L21.7813 8.01262L7.88722 22.0052L27.0294 41.1587L0 41.2059L0.0369346 60.9661L27.0563 60.9189L7.98123 80.1364L21.9224 94.0885L41.0008 74.8676L41.0478 102L60.7306 101.966L60.6835 74.8339L79.8257 93.984L93.7199 79.9914L74.5743 60.838L101.6 60.7941Z" fill="#CAD2FC"/>
<path d="M76.1152 63.0557L79.6106 88.0745C79.7516 89.0891 80.6179 89.8442 81.6386 89.8442H82.6896C83.8211 89.8442 84.7378 88.9239 84.7378 87.7879V63.0557" fill="#EE8100"/>
<path d="M59.4609 52.8252C59.4609 52.8454 59.4677 52.8657 59.4677 52.8859C59.4811 52.7241 59.4979 52.569 59.5046 52.4072C59.4979 52.5488 59.4609 52.6836 59.4609 52.8286V52.8252Z" fill="white"/>
<path d="M67.1238 40.8555H67.1204C62.7441 40.8555 59.1963 44.4172 59.1963 48.8108V50.5165C59.1963 54.9101 62.7441 58.4718 67.1204 58.4718H67.1238C71.5002 58.4718 75.048 54.9101 75.048 50.5165V48.8108C75.048 44.4172 71.5002 40.8555 67.1238 40.8555Z" fill="white"/>
<path d="M67.1201 59.1459C62.379 59.1459 58.5244 55.2727 58.5244 50.5164V48.8141C58.5244 44.0544 62.3824 40.1846 67.1201 40.1846C71.8578 40.1846 75.7158 44.0577 75.7158 48.8141V50.5164C75.7158 55.2761 71.8578 59.1459 67.1201 59.1459ZM67.1201 41.5296C63.1211 41.5296 59.8675 44.796 59.8675 48.8107V50.513C59.8675 54.5277 63.1211 57.7941 67.1201 57.7941C71.1191 57.7941 74.3727 54.5277 74.3727 50.513V48.8107C74.3727 44.796 71.1191 41.5296 67.1201 41.5296Z" fill="#303F8D"/>
<path d="M67.6137 47.3379H74.91V51.0021C74.91 53.0246 73.2748 54.6662 71.2602 54.6662C69.2455 54.6662 67.6104 53.0246 67.6104 51.0021V47.3379H67.6137Z" fill="#303F8D"/>
<path d="M54.2302 40.8555H54.2269C49.8505 40.8555 46.3027 44.4172 46.3027 48.8108V50.5165C46.3027 54.9101 49.8505 58.4718 54.2269 58.4718H54.2302C58.6066 58.4718 62.1544 54.9101 62.1544 50.5165V48.8108C62.1544 44.4172 58.6066 40.8555 54.2302 40.8555Z" fill="white"/>
<path d="M54.2305 59.1459C49.4894 59.1459 45.6348 55.2727 45.6348 50.5164V48.8141C45.6348 44.0544 49.4928 40.1846 54.2305 40.1846C58.9682 40.1846 62.8262 44.0577 62.8262 48.8141V50.5164C62.8262 55.2761 58.9682 59.1459 54.2305 59.1459ZM54.2305 41.5296C50.2314 41.5296 46.9778 44.796 46.9778 48.8107V50.513C46.9778 54.5277 50.2314 57.7941 54.2305 57.7941C58.2295 57.7941 61.4831 54.5277 61.4831 50.513V48.8107C61.4831 44.796 58.2295 41.5296 54.2305 41.5296Z" fill="#303F8D"/>
<path d="M74.9103 46.6631H46.4404V48.0114H74.9103V46.6631Z" fill="#303F8D"/>
<path d="M54.8579 47.3379H62.1541V51.0021C62.1541 53.0246 60.5189 54.6662 58.5043 54.6662C56.4897 54.6662 54.8545 53.0246 54.8545 51.0021V47.3379H54.8579Z" fill="#303F8D"/>
<path d="M74.9103 47.3377C74.222 43.6499 70.9986 40.8555 67.1238 40.8555C63.2491 40.8555 60.0223 43.6466 59.334 47.3377H74.9103Z" fill="#CAD2FC"/>
<path d="M58.5244 48.0113L58.6722 47.2124C59.431 43.1369 62.9868 40.1807 67.1235 40.1807C71.2601 40.1807 74.8092 43.1369 75.5714 47.2124L75.7191 48.0113H58.5244ZM60.1898 46.6629H74.0537C73.1304 43.6426 70.3334 41.529 67.1235 41.529C63.9135 41.529 61.1132 43.6426 60.1898 46.6629Z" fill="#303F8D"/>
<path d="M62.0168 47.3377C61.3284 43.6499 58.1051 40.8555 54.2303 40.8555C50.3555 40.8555 47.1288 43.6466 46.4404 47.3377H62.0168Z" fill="#CAD2FC"/>
<path d="M45.6309 48.0113L45.7786 47.2124C46.5374 43.1369 50.0932 40.1807 54.2299 40.1807C58.3666 40.1807 61.9157 43.1369 62.6779 47.2124L62.8256 48.0113H45.6309ZM47.2963 46.6629H61.1602C60.2368 43.6426 57.4399 41.529 54.2299 41.529C51.02 41.529 48.2196 43.6426 47.2963 46.6629Z" fill="#303F8D"/>
<path d="M64.4042 60.0927C61.4091 60.0556 58.3503 60.396 55.3485 60.5073C55.0698 60.5342 54.7441 60.6017 54.593 60.7938C54.264 61.5185 54.5762 62.4826 54.6031 63.2613C54.8146 64.9939 55.0799 66.7097 56.1543 68.2873C57.1348 69.5851 58.0313 70.7346 60.2608 71.3211C62.2318 71.7492 64.9179 71.2132 65.6566 69.4064C66.214 67.5524 65.7976 65.0715 65.5626 63.1231C65.4518 62.368 65.3343 61.6837 65.2403 61.1579C65.1731 60.6994 65.0623 60.2882 64.5083 60.1196L64.4042 60.0927Z" fill="#303F8D"/>
<path d="M54.875 66.2886C55.3182 66.0256 56.4229 65.4526 57.6988 65.6919C59.1728 65.9683 59.9418 67.1515 60.6704 68.2673C61.305 69.2415 61.9597 70.2494 61.5501 70.7314C60.8819 71.5236 57.3698 70.9303 55.7715 68.8875C54.9959 67.8931 54.8851 66.8313 54.875 66.2852V66.2886Z" fill="white"/>
<path d="M61.3993 72.0426C60.805 72.0426 60.2342 71.9819 59.7473 71.8774C57.5178 71.2909 56.7522 70.2425 55.9397 69.1301C55.8356 68.9886 55.7315 68.847 55.6207 68.6987C54.4589 66.9964 54.1634 65.1963 53.9385 63.3457V63.285C53.9284 63.0828 53.8982 62.8502 53.8646 62.6075C53.7773 61.9468 53.6766 61.1984 53.9855 60.5175L54.0191 60.4433L54.0694 60.3793C54.3112 60.0692 54.7107 59.8905 55.2916 59.8366H55.3286C56.4433 59.7928 57.5916 59.7186 58.703 59.6444C60.5766 59.5231 62.514 59.3916 64.4178 59.4186H64.5018L64.6864 59.4692C65.7307 59.7894 65.8583 60.6827 65.912 61.0636C66.0329 61.7142 66.1403 62.385 66.2343 63.0288C66.2612 63.2614 66.2914 63.4839 66.3183 63.7097C66.5634 65.6345 66.8421 67.8189 66.3049 69.6021L66.2847 69.6627C65.5729 71.4021 63.3467 72.0392 61.406 72.0392L61.3993 72.0426ZM55.2715 63.2109C55.483 64.9435 55.7416 66.4907 56.7086 67.9099C56.8059 68.038 56.9134 68.1863 57.0208 68.3312C57.8032 69.3998 58.3203 70.1077 60.0595 70.5661C61.7182 70.9268 64.4178 70.5763 65.0222 69.1841C65.4621 67.6807 65.2069 65.6649 64.9786 63.885C64.9484 63.6558 64.9215 63.43 64.8946 63.2109C64.804 62.5973 64.6965 61.9434 64.5756 61.2861C64.5119 60.8377 64.4514 60.8141 64.3104 60.7703C62.4872 60.7535 60.6035 60.8748 58.7803 60.9928C57.6689 61.0636 56.5172 61.1411 55.389 61.1816C55.2748 61.1917 55.1976 61.2085 55.1506 61.222C55.0734 61.5456 55.1305 61.9906 55.1875 62.4254C55.2211 62.6816 55.258 62.9479 55.2681 63.2109H55.2715Z" fill="#303F8D"/>
<path d="M84.9533 69.9702C83.7345 69.478 82.4015 69.1376 81.1255 69.1679C80.2156 69.1881 78.1238 69.2387 76.8747 70.6781C76.3408 71.2949 76.0454 72.0669 75.8875 73.9107C75.5618 77.73 75.2966 80.8784 77.4757 83.3931C77.8854 83.865 79.2855 85.4325 81.599 85.8067C84.6746 86.3055 86.9814 84.3066 87.438 83.9088C90.0167 81.6739 90.2047 78.5592 90.2283 77.8749C90.3323 74.804 88.8113 71.8275 86.0378 70.4556C85.692 70.2837 85.3294 70.1185 84.9567 69.9702H84.9533Z" fill="#CAD2FC"/>
<path d="M82.5761 86.5609C82.2134 86.5609 81.8508 86.534 81.4915 86.4733C80.3029 86.2811 78.5569 85.6676 76.9687 83.8372C74.6015 81.1068 74.887 77.746 75.216 73.8526C75.3738 71.9986 75.6861 71.0177 76.3677 70.2323C77.8115 68.5704 80.1216 68.5165 81.1088 68.4929C82.3511 68.4525 83.7311 68.7491 85.2051 69.3424C85.5779 69.4941 85.9606 69.6626 86.3367 69.8514C89.2277 71.284 91.0173 74.4425 90.9032 77.8977C90.8629 79.1079 90.4868 82.1619 87.8812 84.4204C86.2662 85.8193 84.4161 86.5609 82.5794 86.5609H82.5761ZM81.2834 69.8413C81.2364 69.8413 81.186 69.8413 81.139 69.8413C80.3298 69.8615 78.4327 69.9053 77.3784 71.1188C76.9687 71.5908 76.7035 72.2076 76.5524 73.9672C76.2334 77.7022 75.9849 80.6517 77.9794 82.9507C79.3023 84.4777 80.7327 84.9867 81.7031 85.1418C84.1105 85.5328 86.0546 84.2181 86.9982 83.399C89.2042 81.4877 89.5231 78.882 89.5567 77.8505C89.6541 74.9212 88.1566 72.2548 85.739 71.0582C85.3932 70.8862 85.044 70.7312 84.7049 70.593C83.4592 70.0907 82.3108 69.8379 81.2834 69.8379V69.8413Z" fill="#303F8D"/>
<path d="M75.0848 79.0581C74.2756 79.0581 73.4529 78.7076 72.6975 78.03C71.1462 76.6412 71.1059 74.3625 71.858 72.9197C72.5229 71.6388 73.4966 71.1433 74.1916 70.9511C75.6422 70.5534 76.3674 70.9949 76.6058 71.1399C76.9248 71.332 77.0323 71.75 76.8409 72.0669C76.6495 72.3871 76.2466 72.495 75.9276 72.3029C75.9276 72.3029 75.9141 72.2927 75.9108 72.2927C75.7798 72.2152 75.434 72.0062 74.5408 72.2523C74.101 72.3736 73.4865 72.6939 73.0433 73.5433C72.5262 74.5344 72.543 76.0884 73.5873 77.0221C74.0372 77.4266 74.7289 77.8615 75.4541 77.6592L75.4978 77.6457C75.8571 77.5513 76.223 77.7704 76.3137 78.1311C76.4044 78.4918 76.1895 78.8593 75.8302 78.9503C75.5851 79.0211 75.3333 79.0548 75.0814 79.0548L75.0848 79.0581Z" fill="#303F8D"/>
<path d="M75.8568 76.3039C75.5949 76.3039 75.3465 76.1489 75.239 75.8927C75.0946 75.5488 75.2524 75.1544 75.5949 75.0095C76.9984 74.4095 78.496 73.9881 80.0405 73.7589C81.857 73.4892 83.7004 73.4892 85.5236 73.7589C85.8896 73.8128 86.1448 74.1567 86.0911 74.5241C86.0373 74.8915 85.6949 75.1477 85.3289 75.0938C83.6366 74.8443 81.9242 74.8443 80.2386 75.0938C78.8082 75.3061 77.4215 75.6938 76.1254 76.25C76.0381 76.2871 75.9508 76.3039 75.8635 76.3039H75.8568Z" fill="#303F8D"/>
<path d="M76.2162 81.2996C75.9543 81.2996 75.7058 81.1445 75.5984 80.8883C75.454 80.5445 75.6118 80.1501 75.9543 80.0051C77.3612 79.4051 78.8553 78.9838 80.3999 78.7579C82.2164 78.4882 84.0598 78.4882 85.883 78.7579C86.249 78.8119 86.5042 79.1557 86.4505 79.5231C86.3967 79.8905 86.0542 80.1467 85.6883 80.0928C83.996 79.8433 82.2836 79.8433 80.598 80.0928C79.1676 80.3052 77.7842 80.6928 76.4815 81.249C76.3975 81.2861 76.3069 81.3029 76.2196 81.3029L76.2162 81.2996Z" fill="#303F8D"/>
<path d="M118.795 52.7851C117.627 42.3893 111.821 34.5115 105.831 35.1924C105.623 35.216 105.831 35.1924 105.089 35.2767C104.28 35.371 103.508 35.6542 102.829 36.1059L69.9474 57.8718C69.118 58.4212 68.6211 59.3516 68.6211 60.346V62.8506C68.6211 64.2799 69.6351 65.5035 71.0353 65.7631L107.08 72.4779C108.054 72.8183 109.054 72.9498 110.062 72.8352C116.055 72.1576 119.967 63.1809 118.798 52.7851H118.795Z" fill="#EE8100"/>
<path d="M109.333 73.3613C109.226 73.3613 109.115 73.3343 109.014 73.2804C107.339 72.3702 105.029 70.9645 103.541 69.4443C98.7935 64.5868 98.0414 58.3641 97.5914 54.646C97.3396 52.5662 97.1818 49.2796 97.8533 45.4098C98.4309 42.0793 99.3744 39.6894 100.734 38.1118C101.768 36.9117 103.219 35.6072 104.035 35.142C104.357 34.96 104.767 35.0712 104.951 35.3948C105.133 35.7184 105.022 36.1297 104.7 36.3151C104.092 36.6589 102.766 37.8185 101.752 38.9949C100.573 40.3635 99.7068 42.5984 99.1796 45.6424C98.5349 49.3503 98.686 52.4954 98.9278 54.4842C99.3844 58.263 100.073 63.9699 104.502 68.5004C105.945 69.9769 108.349 71.3859 109.656 72.0972C109.981 72.2758 110.102 72.6837 109.928 73.0107C109.807 73.2365 109.575 73.3646 109.337 73.3646L109.333 73.3613Z" fill="#303F8D"/>
<path d="M99.9921 62.8336C99.7806 62.8336 99.5724 62.7324 99.4414 62.5437C99.2299 62.2369 99.3038 61.8189 99.6093 61.6066L106.023 57.1266C106.55 56.7592 106.815 56.112 106.701 55.4783L106.18 52.6096C106.059 51.9456 105.536 51.413 104.874 51.2849L98.3166 50.0275C97.954 49.9567 97.7122 49.6062 97.7827 49.2387C97.8533 48.8747 98.2025 48.6354 98.5684 48.7028L105.126 49.9601C106.328 50.1893 107.282 51.1568 107.503 52.3669L108.024 55.2356C108.232 56.3884 107.748 57.5649 106.791 58.2323L100.378 62.7122C100.261 62.7931 100.126 62.8336 99.9955 62.8336H99.9921Z" fill="#303F8D"/>
</g>
<defs>
<clipPath id="clip0_1289_13229">
<rect width="119" height="102" fill="white"/>
</clipPath>
</defs>
</svg>
