<svg width="50" height="49" viewBox="0 0 50 49" fill="none" xmlns="http://www.w3.org/2000/svg">
<path d="M35.334 26.3346L25.6507 16.8846C24.4451 15.718 23.4243 14.4249 22.5882 13.0055C21.752 11.586 21.334 10.0402 21.334 8.36797C21.334 6.22908 22.0826 4.41102 23.5798 2.9138C25.077 1.41658 26.8951 0.667969 29.034 0.667969C30.2784 0.667969 31.4451 0.930469 32.534 1.45547C33.6229 1.98047 34.5562 2.69019 35.334 3.58464C36.1118 2.69019 37.0451 1.98047 38.134 1.45547C39.2229 0.930469 40.3895 0.667969 41.634 0.667969C43.7729 0.667969 45.5909 1.41658 47.0882 2.9138C48.5854 4.41102 49.334 6.22908 49.334 8.36797C49.334 10.0402 48.9257 11.586 48.109 13.0055C47.2923 14.4249 46.2812 15.718 45.0757 16.8846L35.334 26.3346ZM35.334 19.8013L41.6923 13.5596C42.4312 12.8207 43.1118 12.0332 43.734 11.1971C44.3562 10.361 44.6673 9.41797 44.6673 8.36797C44.6673 7.51241 44.3756 6.79297 43.7923 6.20964C43.209 5.6263 42.4895 5.33464 41.634 5.33464C41.0895 5.33464 40.5743 5.44158 40.0882 5.65547C39.602 5.86936 39.184 6.19019 38.834 6.61797L35.334 10.818L31.834 6.61797C31.484 6.19019 31.0659 5.86936 30.5798 5.65547C30.0937 5.44158 29.5784 5.33464 29.034 5.33464C28.1784 5.33464 27.459 5.6263 26.8757 6.20964C26.2923 6.79297 26.0007 7.51241 26.0007 8.36797C26.0007 9.41797 26.3118 10.361 26.934 11.1971C27.5562 12.0332 28.2368 12.8207 28.9757 13.5596L35.334 19.8013ZM14.334 39.168L30.5506 43.6013L44.434 39.2846C44.2395 38.9346 43.9576 38.6332 43.5882 38.3805C43.2187 38.1277 42.8006 38.0013 42.334 38.0013H30.5506C29.5007 38.0013 28.6645 37.9624 28.0423 37.8846C27.4201 37.8069 26.7784 37.6513 26.1173 37.418L20.6923 35.6096L21.9757 31.0596L26.7007 32.6346C27.3618 32.8291 28.1395 32.9846 29.034 33.1013C29.9284 33.218 31.2507 33.2957 33.0006 33.3346C33.0006 32.9069 32.8743 32.4985 32.6215 32.1096C32.3687 31.7207 32.0673 31.468 31.7173 31.3513L18.0673 26.3346H14.334V39.168ZM0.333984 47.3346V21.668H18.0673C18.3395 21.668 18.6118 21.6971 18.884 21.7555C19.1562 21.8138 19.409 21.8819 19.6423 21.9596L33.3507 27.0346C34.634 27.5013 35.6743 28.318 36.4715 29.4846C37.2687 30.6513 37.6673 31.9346 37.6673 33.3346H42.334C44.2784 33.3346 45.9312 33.9763 47.2923 35.2596C48.6534 36.543 49.334 38.2346 49.334 40.3346V42.668L30.6673 48.5013L14.334 43.9513V47.3346H0.333984ZM5.00065 42.668H9.66732V26.3346H5.00065V42.668Z" fill="#303F8D"/>
</svg>
