<svg width="28" height="28" viewBox="0 0 28 28" fill="none" xmlns="http://www.w3.org/2000/svg">
<mask id="mask0_1881_14263" style="mask-type:alpha" maskUnits="userSpaceOnUse" x="0" y="0" width="28" height="28">
<rect width="28" height="28" fill="#D9D9D9"/>
</mask>
<g mask="url(#mask0_1881_14263)">
<path d="M11.6673 20.9987C11.0257 20.9987 10.4763 20.7702 10.0194 20.3133C9.56246 19.8563 9.33398 19.307 9.33398 18.6654V17.207C8.22565 16.4487 7.36523 15.4765 6.75273 14.2904C6.14023 13.1043 5.83398 11.8404 5.83398 10.4987C5.83398 8.2237 6.62635 6.29384 8.21107 4.70911C9.79579 3.12439 11.7257 2.33203 14.0007 2.33203C16.2757 2.33203 18.2055 3.12439 19.7902 4.70911C21.375 6.29384 22.1673 8.2237 22.1673 10.4987C22.1673 11.8404 21.8611 13.0994 21.2486 14.2758C20.6361 15.4522 19.7757 16.4293 18.6673 17.207V18.6654C18.6673 19.307 18.4388 19.8563 17.9819 20.3133C17.525 20.7702 16.9757 20.9987 16.334 20.9987H11.6673ZM11.6673 18.6654H16.334V15.982L17.3257 15.282C18.1229 14.7376 18.7402 14.0424 19.1777 13.1966C19.6152 12.3508 19.834 11.4515 19.834 10.4987C19.834 8.88481 19.2652 7.50911 18.1277 6.37161C16.9902 5.23411 15.6145 4.66536 14.0007 4.66536C12.3868 4.66536 11.0111 5.23411 9.87357 6.37161C8.73607 7.50911 8.16732 8.88481 8.16732 10.4987C8.16732 11.4515 8.38607 12.3508 8.82357 13.1966C9.26107 14.0424 9.87843 14.7376 10.6757 15.282L11.6673 15.982V18.6654ZM11.6673 25.6654C11.3368 25.6654 11.0597 25.5536 10.8361 25.3299C10.6125 25.1063 10.5007 24.8293 10.5007 24.4987V23.332H17.5007V24.4987C17.5007 24.8293 17.3888 25.1063 17.1652 25.3299C16.9416 25.5536 16.6645 25.6654 16.334 25.6654H11.6673Z" fill="white"/>
</g>
</svg>
